<?xml version="1.0" encoding="UTF-8" standalone="no"?>
<svg
   xmlns:dc="http://purl.org/dc/elements/1.1/"
   xmlns:cc="http://creativecommons.org/ns#"
   xmlns:rdf="http://www.w3.org/1999/02/22-rdf-syntax-ns#"
   xmlns:svg="http://www.w3.org/2000/svg"
   xmlns="http://www.w3.org/2000/svg"
   xmlns:sodipodi="http://sodipodi.sourceforge.net/DTD/sodipodi-0.dtd"
   xmlns:inkscape="http://www.inkscape.org/namespaces/inkscape"
   viewBox="0 0 16 16"
   fill-rule="evenodd"
   clip-rule="evenodd"
   stroke-linejoin="round"
   stroke-miterlimit="1.414"
   version="1.1"
   id="svg4"
   sodipodi:docname="reddit-colored.svg"
   inkscape:version="0.92.1 r15371">
  <metadata
     id="metadata10">
    <rdf:RDF>
      <cc:Work
         rdf:about="">
        <dc:format>image/svg+xml</dc:format>
        <dc:type
           rdf:resource="http://purl.org/dc/dcmitype/StillImage" />
        <dc:title></dc:title>
      </cc:Work>
    </rdf:RDF>
  </metadata>
  <defs
     id="defs8" />
  <sodipodi:namedview
     pagecolor="#ffffff"
     bordercolor="#666666"
     borderopacity="1"
     objecttolerance="10"
     gridtolerance="10"
     guidetolerance="10"
     inkscape:pageopacity="0"
     inkscape:pageshadow="2"
     inkscape:window-width="1920"
     inkscape:window-height="1017"
     id="namedview6"
     showgrid="false"
     inkscape:zoom="14.75"
     inkscape:cx="-3.0169492"
     inkscape:cy="8"
     inkscape:window-x="-8"
     inkscape:window-y="-8"
     inkscape:window-maximized="1"
     inkscape:current-layer="svg4" />
  <g
     inkscape:groupmode="layer"
     id="layer2"
     inkscape:label="Layer 2">
    <path
       inkscape:connector-curvature="0"
       style="fill:#000000;fill-opacity:1"
       d="m 7.967,14.707 c -3.944,0 -7.152,-2.14 -7.152,-4.77 0,-0.183 0.016,-0.363 0.046,-0.54 -0.53,-0.33 -0.86,-0.91 -0.86,-1.545 0,-1 0.82,-1.812 1.82,-1.812 0.45,0 0.87,0.164 1.2,0.455 1.24,-0.796 2.91,-1.297 4.75,-1.33 l 1.21,-3.69 0.27,0.063 c 0,0 0.01,0 0.01,0.002 l 2.82,0.663 c 0.23,-0.533 0.76,-0.908 1.38,-0.908 0.82,0 1.49,0.67 1.49,1.492 0,0.823 -0.67,1.492 -1.49,1.492 -0.82,0 -1.49,-0.67 -1.49,-1.49 L 9.4,2.18 8.42,5.17 c 1.77,0.07 3.37,0.57 4.57,1.35 0.33,-0.31 0.764,-0.48 1.225,-0.48 1,0 1.814,0.81 1.814,1.81 0,0.66 -0.36,1.26 -0.92,1.58 0.02,0.17 0.04,0.33 0.04,0.5 -0.01,2.63 -3.21,4.77 -7.16,4.77 z"
       id="path4523" />
  </g>
  <path
     style="fill:#ffffff;fill-opacity:1"
     d="m 1.473,9.368 c -0.04,0.185 -0.06,0.374 -0.06,0.566 0,2.3 2.94,4.173 6.554,4.173 3.613,0 6.553,-1.872 6.553,-4.173 0,-0.183 -0.02,-0.364 -0.055,-0.54 L 14.455,9.372 C 14.442,9.336 14.435,9.299 14.435,9.262 14.235,8.478 13.69,7.765 12.902,7.19 12.872,7.18 12.844,7.164 12.818,7.143 12.801,7.13 12.788,7.115 12.774,7.1 11.576,6.276 9.864,5.76 7.967,5.76 6.087,5.76 4.391,6.266 3.195,7.075 3.185,7.087 3.175,7.098 3.162,7.108 3.136,7.13 3.106,7.148 3.075,7.158 2.27,7.734 1.711,8.451 1.503,9.244 c 0,0.038 -0.01,0.077 -0.025,0.114 z"
     id="path4535" />
  <path
     style="fill:#000000;fill-opacity:1"
     d="m 8,13.003 c -1.198,0 -2.042,-0.26 -2.58,-0.8 -0.116,-0.116 -0.116,-0.305 0,-0.422 0.117,-0.11 0.307,-0.11 0.424,0 0.42,0.42 1.125,0.63 2.155,0.63 1.03,0 1.73,-0.2 2.15,-0.62 0.11,-0.11 0.3,-0.11 0.42,0 0.11,0.12 0.11,0.31 0,0.43 -0.54,0.54 -1.38,0.8 -2.58,0.8 z"
     id="path4533" />
  <path
     style="fill:#ff0000;fill-opacity:1"
     d="m 5.592,7.945 c -0.61,0 -1.12,0.51 -1.12,1.12 0,0.608 0.51,1.102 1.12,1.102 0.61,0 1.103,-0.494 1.103,-1.102 0,-0.61 -0.494,-1.12 -1.103,-1.12 z"
     id="path4531" />
  <path
     style="fill:#ff0000;fill-opacity:1"
     d="m 10.422,7.945 c -0.61,0 -1.12,0.51 -1.12,1.12 0,0.608 0.51,1.102 1.12,1.102 0.61,0 1.103,-0.494 1.103,-1.102 0,-0.61 -0.494,-1.12 -1.103,-1.12 z"
     id="path4529" />
  <path
     style="fill:#ffffff;fill-opacity:1"
     d="m 13.46,6.88 c 0.693,0.556 1.202,1.216 1.462,1.94 0.3,-0.225 0.48,-0.578 0.48,-0.968 0,-0.67 -0.545,-1.214 -1.214,-1.214 -0.267,0 -0.52,0.087 -0.728,0.243 z"
     id="path4527" />
  <path
     style="fill:#ffffff;fill-opacity:1"
     d="m 1.812,6.64 c -0.67,0 -1.214,0.545 -1.214,1.214 0,0.363 0.16,0.7 0.43,0.927 C 1.296,8.061 1.81,7.411 2.506,6.861 2.304,6.721 2.063,6.641 1.812,6.641 Z"
     id="path4525" />
  <path
     style="fill:#ffffff;fill-opacity:1"
     d="m 13.43,1.893 c -0.494,0 -0.895,0.4 -0.895,0.894 0,0.493 0.4,0.894 0.894,0.894 0.49,0 0.89,-0.4 0.89,-0.89 0,-0.49 -0.4,-0.89 -0.9,-0.89 z"
     id="path2" />
  <g
     inkscape:groupmode="layer"
     id="layer1"
     inkscape:label="Layer 1" />
</svg>
