<?xml version="1.0" encoding="iso-8859-1"?>
<!-- Generator: Adobe Illustrator 16.0.0, SVG Export Plug-In . SVG Version: 6.00 Build 0)  -->
<!DOCTYPE svg PUBLIC "-//W3C//DTD SVG 1.1//EN" "http://www.w3.org/Graphics/SVG/1.1/DTD/svg11.dtd">
<svg version="1.1" id="Capa_1" xmlns="http://www.w3.org/2000/svg" xmlns:xlink="http://www.w3.org/1999/xlink" x="0px" y="0px"
	 width="592.127px" height="592.128px" viewBox="0 0 592.127 592.128" style="enable-background:new 0 0 592.127 592.128;"
	 xml:space="preserve">
<g>
	<path d="M162.502,439.239c-1.224-16.524-8.568-40.393-22.338-51.103c-3.672-2.754-7.956,0.612-7.038,4.284
		c-25.092,13.158-22.032,67.014,6.732,74.358C157.606,471.062,163.421,452.703,162.502,439.239z M143.837,456.681
		c-24.174,0.918-20.808-44.981-7.956-60.894C144.449,408.333,165.257,455.763,143.837,456.681z"/>
	<path d="M205.343,408.333c-7.344-7.344-16.218-13.464-25.398-18.666c-5.814-3.366-13.77-8.262-20.808-6.732
		c-3.672,0.612-3.672,4.896-1.224,7.038c3.978,19.891,29.682,78.03,54.468,60.282C228.599,438.015,216.053,418.737,205.343,408.333z
		 M204.119,444.135c-10.098,3.061-22.338-18.666-26.01-25.092c-4.896-7.956-10.098-17.136-13.158-26.316
		c10.404,3.979,19.89,9.792,28.458,17.137C199.834,415.371,222.479,438.627,204.119,444.135z"/>
	<path d="M384.659,349.581c-1.224-1.53-3.06-0.918-3.978,0.612c-0.306-0.612-0.918-1.225-2.142-1.225
		c-17.748,1.53-30.906,26.01-36.721,40.086c-4.896,11.935-14.994,39.475,0.612,48.654
		C379.763,459.129,404.855,371.613,384.659,349.581z M378.845,395.787c-2.142,9.18-15.912,45.899-31.519,32.436
		c-9.18-7.956,2.448-33.354,6.12-41.31c6.12-13.464,14.383-24.786,26.316-33.048c0.306,0,0.306-0.307,0.306-0.612
		C383.435,367.329,382.211,381.405,378.845,395.787z"/>
	<path d="M462.077,402.519c-1.836-21.42-25.703-42.228-44.369-50.489c-0.612-0.307-1.225-0.307-1.836-0.307
		c-1.225-1.529-4.284-1.529-5.202,0.918c-6.427,16.219-3.979,35.496-0.307,52.021c2.754,12.24,8.874,33.966,24.175,35.802
		C452.897,442.911,463.607,416.901,462.077,402.519z M444.941,425.469c-3.672,4.59-8.262,7.344-13.158,3.061
		c-8.874-7.956-11.934-22.95-14.075-33.967c-2.143-10.71-3.673-22.949-1.836-34.271c14.382,10.404,29.069,19.89,35.495,37.332
		C455.04,407.721,451.061,417.819,444.941,425.469z"/>
	<path d="M569.79,436.485c-3.061,0.611-6.12,1.836-8.874,3.365c2.142-11.934-3.061-26.622-10.099-35.189
		c-8.874-10.404-19.584-4.896-27.54,2.754c-4.284-18.36-23.562-26.622-38.556-12.24c-2.142-10.71-6.426-21.42-12.24-31.212
		c57.223-70.992,62.424-166.77,13.158-243.27C444.941,57.657,370.583,37.461,300.204,44.5
		c-62.119-4.284-119.341,37.026-150.553,88.128c-33.048,53.856-28.764,163.404,5.814,218.484c-6.732,0-13.158,0.611-19.89,2.447
		c-29.07,7.65-45.594,33.967-48.96,61.812l-0.306-0.307c-10.098-3.672-21.726,6.427-26.928,14.383
		c-2.754,4.59-3.672,9.485-3.06,14.075c-5.508-3.06-12.24-3.672-17.748,0.919c-6.732,5.813-7.65,13.464-5.814,21.113
		c-39.474-3.06-46.206,62.118-3.978,67.32c2.448,0.306,2.754-3.672,0.612-4.284c-32.742-9.486-26.316-63.954,10.404-51.102
		c4.284,1.529,7.956-3.979,5.814-7.65c-1.224-2.448-2.448-4.59-3.672-7.038c3.06-11.016,8.262-13.77,15.912-7.649l0,0
		c-1.224,2.142-1.836,4.283-2.448,6.426c-0.612,2.754,3.366,3.978,4.59,1.224c1.224-3.366,2.754-5.508,4.896-7.344
		c0.306,0,0.306-0.306,0.612-0.612c3.366-3.06,7.65-5.202,12.546-7.038c2.448-0.918,1.224-4.59-1.224-4.59
		c-5.202,0.307-10.098,2.448-13.77,5.814c-2.754-5.814-0.612-12.24,3.672-17.442c5.202-6.426,11.934-7.038,18.972-9.792
		c-1.224,22.645,5.814,45.594,22.032,59.364c-3.366,3.672-6.732,7.344-9.486,11.322c-1.836,2.447-4.59,5.813-6.426,9.485
		c-7.344-5.202-15.912-8.874-24.786-6.731c-7.344,1.529-11.628,8.262-12.24,15.3c-0.306,7.038,4.284,13.77,10.404,16.83
		c6.426,3.366,13.77,2.754,20.502,0.918c-1.224,5.508-0.612,11.016,3.672,15.3c5.508,5.814,14.994,6.12,22.338,4.59
		c7.956-1.53,15.912-6.426,19.278-14.076c1.836-4.283,2.142-8.874,1.224-13.464c-1.224-4.896-4.59-12.852-9.792-14.076
		c0.918-2.142,1.224-4.59,1.836-6.731c0.918-3.061,1.224-6.12,1.224-9.181c5.202,1.837,11.322,3.061,17.748,3.061
		c-6.732,8.874-7.65,23.256,4.284,28.458c10.404,4.284,16.524-2.143,19.584-10.404c4.59,5.814,10.71,9.486,18.666,9.181
		c7.65-0.612,10.71-6.12,11.322-12.24c3.366,1.836,7.344,3.06,12.546,5.202c2.142,0.918,4.59-0.918,5.202-3.061
		c3.366-10.098,2.142-18.972-3.06-27.233c7.344-2.754,13.158-6.732,18.054-11.322c0.306,0.306,0.612,0.612,0.918,0.612
		c29.376,6.426,59.364,18.666,89.353,22.644c-6.732,2.448-14.076,7.038-13.158,15.3c0.918,7.956,9.18,12.546,15.912,14.994
		c7.344,2.448,16.218,2.142,22.338-3.366c5.202-4.896,4.59-11.934,2.448-18.359c6.731,0.918,13.158-0.918,18.36-4.284
		c0.611,0.918,1.529,1.53,2.754,1.53c8.262,0.306,13.464,0.918,16.83-2.448c3.06,4.896,7.649,8.262,14.075,7.649
		c6.12-0.611,10.099-4.59,12.853-9.792c2.754,3.672,7.038,5.814,12.852,3.979c9.486-3.366,12.24-14.076,11.322-23.256
		c0.612,0,1.224,0,1.836-0.307c1.836-0.611,3.672-1.224,5.202-1.836c6.12,3.672,12.24,6.12,18.972,8.568
		c8.263,3.06,16.524,7.344,24.786,9.486c-16.218-0.612-18.666,29.682,0.612,30.294c8.262,0.306,15.912-5.509,20.196-11.935
		c3.06-4.896,3.365-10.098,1.836-14.688c7.344,2.447,14.993,3.06,20.808-2.143c7.038-6.426,5.202-18.666,2.754-26.622
		c-2.754-7.956-8.568-18.359-17.748-19.89c-11.322-1.836-17.748,10.404-21.114,19.89c-3.672-2.754-8.262-4.283-12.239-6.12
		c-3.979-1.529-8.263-2.754-12.546-3.672c14.382-14.993,18.972-35.802,16.218-56.304c13.77-13.77,33.048-5.813,29.987,15.3
		c-0.611,4.896,4.896,7.345,7.65,3.366c3.672-5.202,10.404-15.3,18.36-11.322c4.284,2.143,6.426,7.956,7.649,11.935
		c3.061,8.262,1.53,15.912,1.53,24.174c0,0.918,0.306,1.53,0.918,2.142c0,0,0,0.307-0.306,0.307
		c-5.202-3.672-11.322-4.896-17.442-4.896c-3.06,0-3.06,4.284,0,4.59c5.202,0.307,10.404,1.836,14.382,5.202
		c3.979,3.672,4.896,9.792,8.874,12.853c1.53,1.224,3.672,0.918,4.284-1.225c1.224-4.896-2.448-10.098-6.426-13.77
		c1.529-0.918,3.366-2.143,3.672-2.143c3.06-1.836,6.12-3.365,9.486-3.978c10.403-2.448,13.77,5.813,16.523,14.076
		c1.225,3.672,6.732,3.06,6.732-0.918C592.127,445.053,582.947,434.037,569.79,436.485z M464.832,352.947
		c-9.792-12.24-22.339-22.032-37.332-27.847c62.117-91.187,14.382-234.701-88.128-272.339
		c43.451,5.814,83.844,22.032,117.504,54.468C523.889,172.102,519.605,282.874,464.832,352.947z M151.487,301.845
		c-10.71-40.085-14.688-85.067-6.426-126.071c15.606-77.112,98.532-129.132,174.115-115.974
		c110.771,19.278,153.918,176.562,96.39,261.936c-32.13-7.345-66.096,2.447-88.128,25.703c0-1.224-0.612-2.754-2.142-3.06
		c-7.956-2.448-16.219-0.306-21.42,5.202c-9.793-17.748-33.355-9.18-41.311,9.18c-17.442-18.054-46.512-8.262-47.124,18.36
		c-13.464-13.158-30.6-22.338-48.96-25.092c0-0.918,0-1.53,0-2.448c0-2.143-2.448-2.448-3.366-0.918
		C166.787,343.155,154.241,311.637,151.487,301.845z M278.783,437.709l0.306,0.306c-0.306,1.836,0.918,3.672,2.754,4.284
		c0.612,1.53,1.224,3.06,1.53,4.59c0.306,2.143,0,2.448-1.224,3.672c-0.612,0.307-2.448,0.918-3.978,0.918
		c-2.142,0-4.59-0.306-6.732-0.611c-3.672-0.918-8.262-2.448-9.792-5.814c-0.306-0.306-0.306-1.53,0.918-2.754
		c2.142-2.448,5.508-3.978,6.732-7.038c0.612-1.224-0.612-3.06-1.836-3.366c-1.836-0.306-3.979,0-5.508,0.918
		c-5.508,0.307-13.464,0.307-14.994-5.201c-1.224-4.896,3.06-11.628,6.12-15.301c3.06-3.672,8.568-8.567,13.158-7.956
		c8.262,1.225,5.202,14.076,8.568,18.973c1.224,1.836,3.978,2.142,5.202,0c0,0,0-0.307,0-0.612
		c4.896-0.612,9.792-3.978,13.464-6.731c4.896-3.366,8.875-7.956,12.241-12.547c0,4.591,0.306,9.181,0.918,13.465
		c-4.284,2.754-8.262,5.508-12.241,8.262c-3.978,2.754-8.874,5.508-12.24,8.874C279.701,434.037,277.559,435.873,278.783,437.709z
		 M253.997,447.501c0.306,1.224,0.918,2.142,1.836,3.366c-4.896-0.612-10.098-1.225-14.994-1.53
		c0.918-4.896,1.224-10.098,0.918-15.606c3.366,3.979,8.874,4.896,14.382,4.284C253.997,441.075,253.079,444.44,253.997,447.501z
		 M287.044,440.769c3.672-2.142,6.732-5.508,9.792-7.956c3.672-3.06,7.039-6.12,10.404-9.18
		c3.673,14.382,11.629,26.622,25.093,30.906c-3.366,2.754-5.814,6.12-7.65,10.098c-12.546-3.366-25.398-5.202-38.25-7.649
		c0.306-0.307,0.918-0.612,1.224-0.918C292.247,451.479,290.104,445.665,287.044,440.769z M305.099,399.153
		c-0.918-0.612-2.448-0.918-3.366,0.306c-3.672,4.284-7.65,7.956-12.546,11.322c-2.754,1.836-6.12,3.06-9.18,4.283
		c-0.612-3.365-1.836-6.731-3.06-9.18c-1.53-3.672-4.896-6.731-8.568-7.956c-7.956-2.448-16.218,3.979-21.114,9.792
		c-3.06,3.366-5.814,7.956-7.344,12.853c-1.224-5.814-3.06-11.628-5.814-17.137c-3.366-7.038-7.956-13.77-13.158-19.89
		c0-0.306,0.306-0.306,0.306-0.612c-0.612-25.092,26.01-36.414,39.168-12.239c0.306,0.611,0.918,0.918,1.53,1.224
		c-3.06,1.53-6.12,3.366-9.18,4.896c-2.448,1.53-0.306,4.896,2.142,3.979c7.956-3.672,16.218-7.038,24.48-10.098
		c3.06-0.919,1.836-5.202-1.224-4.591c-3.366,0.612-6.426,1.836-9.486,3.061c1.53-7.956,4.59-14.076,11.322-18.666
		c8.568-5.814,14.994,1.224,19.278,8.262c0,0.306,0.307,0.612,0.612,0.918c0.307,0.612,0.918,1.53,1.225,2.143
		c1.836,3.672,7.037,0.918,6.426-2.755c-0.307-0.918-0.307-1.529-0.612-2.447c4.896-4.896,10.71-6.12,18.054-6.12
		c0.307,0,0.307,0,0.307-0.307c-4.896,5.509-9.181,11.629-12.546,18.36C308.159,376.814,305.711,387.831,305.099,399.153z
		 M122.723,521.553c0.918,2.754,0.918,5.508,0,8.263c-1.836,4.896-7.65,7.649-12.24,9.18c-4.284,1.224-10.71,1.224-14.076-1.225
		c-4.59-3.672-1.53-10.71,1.224-15.3c2.448-4.284-2.142-8.262-6.12-6.12c-8.262,3.979-26.622,8.263-27.54-5.508
		c-0.918-13.77,18.666-7.649,26.928-4.284c0,0.612,0,1.225,0.306,1.836c0.612,2.143,3.06,2.448,4.59,1.225
		c1.836-1.53,2.142-3.366,3.06-5.202c1.224-3.06,3.06-6.12,4.896-8.874c2.448-3.978,5.202-7.956,7.65-11.934
		c2.448,1.836,5.508,3.365,8.262,4.896c-0.306,3.366-0.918,6.426-2.142,9.792c-1.224,3.979-3.978,7.344-3.672,11.628
		c0.306,1.836,1.836,3.366,3.672,2.143C118.745,515.127,121.499,517.881,122.723,521.553z M201.365,475.959
		c-3.978,2.142-2.754,7.038,0.612,8.874c4.59,6.12,6.12,11.934,5.202,18.972c-4.896-1.836-8.568-3.366-11.934-8.874
		c-2.448-4.284-9.18-1.224-7.65,3.366c5.814,21.114-14.382,14.076-18.972-0.306c-1.53-4.284-8.262-3.672-7.956,1.224
		c0,5.814-0.918,17.442-9.486,15.3c-8.568-2.142-4.896-14.994-3.366-20.808c0.306,0,0.306,0,0.612,0
		c3.366,0,4.284-5.202,0.918-5.814c-59.67-9.18-70.38-87.21-21.42-119.34c30.294-19.89,65.79-2.142,87.21,21.727
		c10.71,12.239,17.748,28.151,19.278,44.369C235.331,456.987,217.889,466.779,201.365,475.959z M340.901,493.401
		c-3.978-2.143-7.649,2.142-5.813,5.813c1.836,3.978,6.12,12.24,2.448,16.524c-2.755,3.06-8.568,1.836-11.935,0.918
		c-3.672-0.918-7.956-2.754-10.098-6.12c-3.061-4.59,5.202-9.486,8.262-11.322c1.224-0.612,1.53-2.142,0.918-3.366
		c2.754,0,3.978-4.59,1.53-5.813c-28.152-12.853-62.731-16.83-93.025-22.645c3.06-4.284,5.202-8.874,6.732-14.076
		c27.846,3.673,55.386,15.912,82.927,17.748c-0.612,4.896,6.12,6.732,7.65,1.836c4.283-15.605,21.42-22.949,34.577-11.934
		C382.211,475.959,360.179,503.499,340.901,493.401z M477.989,467.697c5.509,2.142,10.404,6.12,15.912,7.038c0,0,0,0,0.307,0
		c1.836,1.529,5.201,1.224,6.426-1.837c1.836-4.896,5.813-19.277,13.77-17.747c5.814,1.224,9.181,9.18,11.017,14.075
		c1.836,5.509,3.366,13.158,0,18.36c-4.896,7.038-19.584-2.142-24.174-4.896c-4.284-2.447-8.263,3.061-5.202,6.732
		c7.649,8.262,7.344,19.278-3.979,23.868c-3.366,1.224-7.344,1.53-9.18-1.836c-4.284-7.65,2.142-12.853,8.262-15.3
		c1.225-0.612,1.53-2.448,0-2.754c-0.611-0.307-1.529-0.307-2.142-0.307c1.836-0.306,3.06-2.448,1.53-3.978
		c-4.896-4.591-11.629-6.427-18.055-8.568c-7.956-2.754-15.605-5.202-23.256-8.262c5.202-2.448,9.792-5.508,14.076-8.874
		C468.197,464.637,473.093,465.861,477.989,467.697z M435.456,467.697c-1.225,0.306-1.836,1.224-2.448,2.142
		c-1.53-0.306-3.366,0.918-2.754,3.06c1.224,6.427,0,12.547-4.59,17.137c-6.427,6.731-8.874-4.284-9.486-8.568
		c-0.918-5.202-8.262-3.366-8.568,1.224c-0.611,5.509-2.142,10.711-6.731,14.076c-6.732,5.202-11.017-6.731-11.935-11.016
		c-0.918-3.672-7.038-4.284-7.956,0c-1.224,7.956-4.283,7.344-8.567,7.038c6.12-8.262,8.567-19.891,3.366-30.906
		c-4.591-10.098-19.278-14.382-29.377-13.158c-2.447,0.307-4.896,0.918-7.344,2.143c-35.189-17.137-26.01-70.38-5.508-95.166
		c18.666-22.95,52.326-29.683,80.784-22.95c1.53,1.224,3.672,1.836,5.508,1.224c4.284,1.225,8.262,3.061,12.24,4.896
		C484.109,365.493,496.655,444.747,435.456,467.697z"/>
	<path d="M302.345,130.485c-0.306,0-0.612,0-1.224,0c0.306-7.65,0.918-15.912-0.307-23.256c-0.611-3.672-6.426-3.672-7.344,0
		c-1.53,7.65-2.142,15.606-2.754,23.868c-5.202,0.306-10.404,0.918-15.606,2.142c-5.508,1.224-4.284,10.71,1.224,10.098
		c4.59-0.612,9.18-0.612,13.77-0.612c-0.306,4.59-0.306,9.18-0.306,13.464c-0.306,5.814-0.612,11.628,4.59,15.3
		c3.367,2.448,8.262,0.612,8.875-3.672c0-0.918,0-1.53-0.306-2.448c0-0.306,0-1.224-0.307-3.06c-0.611-2.142-0.611-3.978-0.918-6.12
		c-0.306-4.59-0.611-8.874-0.611-13.464c0.306,0,0.611,0,0.918,0c5.508,0,22.644,3.978,22.644-5.202
		C324.989,127.425,308.159,130.179,302.345,130.485z"/>
	<path d="M231.965,268.491c15.606-4.59,29.07-15.606,29.376-33.66c0.612-20.196-29.682-40.392-48.348-36.414
		c-35.802,7.65-10.098,79.866-1.836,99.755c1.53,3.366,6.426,2.142,5.508-1.529c-1.836-8.568-3.978-17.442-5.814-26.622
		c14.688,7.344,23.562,19.584,33.048,32.741c4.896,6.426,15.606,0.612,11.016-6.426
		C248.489,286.239,241.145,276.447,231.965,268.491z M207.179,222.897c2.754-18.36,17.748-11.322,29.376-4.59
		c11.628,6.732,15.606,19.278,6.426,29.376c-7.038,7.956-18.972,9.486-28.764,9.486c-2.142,0-3.978,1.224-5.202,2.754
		C206.567,247.684,205.343,235.443,207.179,222.897z"/>
	<path d="M285.208,220.449c-3.366,24.786-4.284,49.878-4.284,74.97c0,4.284,7.038,5.507,7.65,0.917
		c3.672-24.786,3.672-49.571,7.956-74.357C298.061,213.717,286.433,212.188,285.208,220.449z"/>
	<path d="M374.561,217.695c-11.934-14.382-33.048-14.994-49.878-12.24c-2.142,0.306-4.284,2.754-4.896,4.896
		c-4.591,25.092-8.874,52.938-7.038,78.642c0.611,7.038,10.098,6.732,10.71,0c0.611-3.978,0.918-7.65,1.224-11.628
		c0,0.612,0.306,1.53,0.612,2.142c5.508,12.24,24.786,15.606,36.107,10.404c12.546-5.508,19.891-18.666,22.338-31.824
		C387.107,244.011,383.741,229.018,374.561,217.695z M370.583,254.721c-1.53,8.568-5.509,17.136-12.853,21.726
		c-9.485,5.814-16.83-3.366-25.397-5.508c-3.366-0.918-6.12,0.918-7.038,3.672c2.142-18.666,3.672-37.638,7.038-55.998
		C355.283,216.471,374.867,228.711,370.583,254.721z"/>
</g>
<g>
</g>
<g>
</g>
<g>
</g>
<g>
</g>
<g>
</g>
<g>
</g>
<g>
</g>
<g>
</g>
<g>
</g>
<g>
</g>
<g>
</g>
<g>
</g>
<g>
</g>
<g>
</g>
<g>
</g>
</svg>
