<?xml version="1.0" encoding="UTF-8"?>
<svg width="512" height="512" enable-background="new 0 0 511.449 511.449" version="1.1" viewBox="0 0 511.45 511.45" xmlns="http://www.w3.org/2000/svg" xmlns:cc="http://creativecommons.org/ns#" xmlns:dc="http://purl.org/dc/elements/1.1/" xmlns:rdf="http://www.w3.org/1999/02/22-rdf-syntax-ns#">
 <metadata>
  <rdf:RDF>
   <cc:Work rdf:about="">
    <dc:format>image/svg+xml</dc:format>
    <dc:type rdf:resource="http://purl.org/dc/dcmitype/StillImage"/>
    <dc:title/>
   </cc:Work>
  </rdf:RDF>
 </metadata>
 <path d="m436.51 74.941c-99.913-99.913-261.64-99.928-361.57 0-99.914 99.912-99.93 261.64 0 361.57 99.913 99.913 261.64 99.928 361.57 0 99.913-99.912 99.929-261.64 0-361.57zm-180.78 394.45c-117.82 0-213.67-95.851-213.67-213.67s95.851-213.67 213.67-213.67 213.67 95.851 213.67 213.67-95.85 213.67-213.67 213.67z" fill="#fff"/>
 <path d="m332.62 239.15-96-74.667c-13.774-10.715-33.893-0.863-33.893 16.577v149.33c0 17.563 20.25 27.186 33.893 16.577l96-74.667c10.796-8.398 10.809-24.745 0-33.153z" fill="#fff"/>
</svg>
