<?xml version="1.0" standalone="no"?>
<!DOCTYPE svg PUBLIC "-//W3C//DTD SVG 1.1//EN" "http://www.w3.org/Graphics/SVG/1.1/DTD/svg11.dtd" >
<svg xmlns="http://www.w3.org/2000/svg" xmlns:xlink="http://www.w3.org/1999/xlink" version="1.1">
<metadata></metadata>
<defs>
<font id="chinese_rocksregular" horiz-adv-x="921" >
<font-face units-per-em="2048" ascent="1761" descent="-287" />
<missing-glyph horiz-adv-x="477" />
<glyph unicode="&#x28;C&#x29;" horiz-adv-x="1492" d="M1419 -10l-401 22l-6 -12h-740l-166 8l-30 402v628l12 66v43l-12 12l14 37v14l-14 9l12 14l-16 295h1286l35 -19v-301l20 -28l-2 -25l-16 -47l12 -10l-8 -97l16 -10zM1260 371l-7 131l-16 30v484l-18 6l16 27v233l6 68h-999l8 -138l-8 -16l10 -6v-10l-12 -21l12 -45v-754 l20 -24v-51l-10 -105l6 -12h983v129l-4 27l13 10v37zM991 365l-8 -9l-119 9h-342l-8 47l-10 112v457l-10 16l10 7v190h434l41 -41v-293l-143 6v144l4 20v51h-205v-61l18 -166l-8 -16v-355l43 -6h170v197l133 31v-340z" />
<glyph unicode="&#x28;R&#x29;" horiz-adv-x="1492" d="M1419 -10l-401 22l-6 -12h-740l-166 8l-30 402v628l12 66v43l-12 12l14 37v14l-14 9l12 14l-16 295h1286l35 -19v-301l20 -28l-2 -25l-16 -47l12 -10l-8 -97l16 -10zM1260 371l-7 131l-16 30v484l-18 6l16 27v233l6 68h-999l8 -138l-8 -16l10 -6v-10l-12 -21l12 -45v-754 l20 -24v-51l-10 -105l6 -12h983v129l-4 27l13 10v37zM436 1212h594v-28l41 -295l-14 -12l-137 6l-13 -9l39 -141l66 -201l55 -225h-160l-71 164l-21 59l-65 244l-23 103h-121l25 -267v-184l-10 -111h-154l-14 7zM889 997v80h-289l8 -37v-26l-8 -17h289z" />
<glyph horiz-adv-x="0" />
<glyph unicode="&#xd;" horiz-adv-x="477" />
<glyph horiz-adv-x="477" />
<glyph unicode=" "  horiz-adv-x="477" />
<glyph unicode="&#x09;" horiz-adv-x="477" />
<glyph unicode="&#xa0;" horiz-adv-x="477" />
<glyph unicode="!" horiz-adv-x="477" d="M399 991l-12 -20l4 -56l-6 -20v-371l-18 -86h-179l-59 -8l-12 37v663l-15 19l-8 68l4 32l-4 23l-10 4l14 45v143l11 4l8 25l-15 29h265l26 -60l-12 -20l2 -17l-8 -22v-313zM377 190l-2 -53l-86 -74l-82 5l-49 26l-37 43l-23 53l-2 27l10 53l84 80l54 8l30 -2l50 -30 l32 -50l21 -59v-27z" />
<glyph unicode="&#x22;" horiz-adv-x="559" d="M475 1511v-413l-102 -27h-25l-18 8v408l16 22zM229 1511v-430l-145 31v358l12 41h133z" />
<glyph unicode="#" horiz-adv-x="1067" d="M922 672h-181v-10l-10 -29l-55 -342h-109l-6 86l49 295l-75 -6h-170l-25 -142l-16 -114l-19 -107l-6 -12h-106l-13 43l53 323h-133l-39 9l21 133h174l35 219h-185l21 127h186l11 59l12 51l29 175l4 61l6 10h119l-43 -356h235l33 198l22 158h113l-4 -43l-23 -139l-18 -170 h174l-20 -131h-164l-33 -219h176zM389 799h242l37 219h-238z" />
<glyph unicode="$" horiz-adv-x="942" d="M889 705v-13l-15 -8v-469h-67l-2 -18l-14 14h-86v4h-119v-156h-217v158h-256l-13 21l-28 409l16 8h74l149 23v-127l13 -21l-15 -14v-76l8 -14h359l-25 168l-573 274v377l-12 82v45l-7 17l15 8l4 14h149l148 -8l-10 143h215v-143l208 18l11 -10l45 -78l37 -420l-217 19 l-19 65l6 177l-41 4l-116 -7h-205l6 -143l27 -20l481 -252z" />
<glyph unicode="%" horiz-adv-x="933" d="M862 1438l-28 -13v-67l-54 -117l-16 -61l-473 -1143h-193l156 393l-2 23l20 22l-2 47l25 2l4 39l-6 10l16 11l-4 41l19 -4l77 235l25 16l-6 19l12 16v13l17 10l-3 16l9 8v21l18 18l27 80l-4 17l125 258l-7 24l19 4v31l16 6l13 66h200v-41zM379 1047h-373v399l66 37h307 v-436zM897 59h-375l-16 23v55l-8 47v250l241 17l111 22v-76zM219 1178v163h-65v-73l10 -90h55zM702 326l-51 4v-174l51 6v164z" />
<glyph unicode="&#x26;" horiz-adv-x="886" d="M815 641l-59 21h-109l-80 -9v-276h-243l16 129v131h-156l-26 -4l-45 -17l-23 13h-14v235h262v256h240v-256h120l117 13v-236z" />
<glyph unicode="'" horiz-adv-x="282" d="M236 1511v-430l-189 31v358l21 41h168z" />
<glyph unicode="(" horiz-adv-x="444" d="M403 -262h-110l-17 6h-200l-13 94v1925h308l12 -24v-209l-109 8l-14 -10v-393l10 -56v-1126l133 16v-231z" />
<glyph unicode=")" horiz-adv-x="516" d="M98 -250l-10 21v209l107 -9l14 9v393l-8 57v1124l-135 -16v231h110l19 -6h200l11 -94v-1919h-308z" />
<glyph unicode="*" horiz-adv-x="933" d="M901 1001l-190 -204l-6 -43l24 -35l31 -207l-275 168l-258 -168l66 285l-88 96l-4 27l-23 2l-108 96l286 24l52 78l-17 27l33 14l61 158l129 -293l97 -8l16 -21l33 17z" />
<glyph unicode="+" horiz-adv-x="886" d="M815 641l-59 21h-109l-80 -9v-276h-243l16 129v131h-156l-26 -4l-45 -17l-23 13h-14v235h262v256h240v-256h120l117 13v-236z" />
<glyph unicode="," horiz-adv-x="440" d="M365 205l-3 -25l-51 -219l-168 16l-53 269v20l31 47l43 41l49 27h47l47 -31l37 -51l21 -63v-31z" />
<glyph unicode="-" horiz-adv-x="909" d="M823 641l-59 21h-90l-170 -21h-318l-65 -25l-23 13h-14v235h635l104 13v-236z" />
<glyph unicode="." horiz-adv-x="452" d="M369 96l-86 -65h-78l-49 28l-41 45l-25 56v45l31 49l45 43l51 27h47l49 -33l35 -49l21 -62v-84z" />
<glyph unicode="/" horiz-adv-x="843" d="M811 1438l-29 -13v-65l-69 -180l-471 -1143h-195l156 393v23l16 20v49l27 2l2 39l-6 10l18 11l-6 8v33l18 -4l78 235l25 16l-6 19l12 16v13l16 10l-2 16l8 8v21l19 18l24 94l125 261l-6 24l17 4v31l22 10l6 62l201 8v-49z" />
<glyph unicode="0" horiz-adv-x="931" d="M743 0h-524l-29 74l-4 -19l-55 58l-29 22v670l-28 485v80l71 82l25 41v18h532l136 -159v-981l28 -211zM678 227l-23 410l-12 25l-10 182v450h-215l-150 -8l8 -61v-207l9 -187v-524l18 -71l-2 -9h377z" />
<glyph unicode="1" horiz-adv-x="600" d="M508 1049l-19 -7l13 -65l-13 -49v-140l13 -213v-405l-13 -150l-110 9h-80l-25 -9v818l-18 20l12 19l-18 43h8l10 10l-18 8v35l6 31l-10 51h-8l-82 -45l-35 2l-33 -25v375l133 133l6 37l52 10h94l112 -10v-309l17 -2v-29l-19 -10l9 -80l-9 -6z" />
<glyph unicode="2" horiz-adv-x="858" d="M88 49v264l258 203l211 232l-16 213v274l-39 37h-183l-30 -15l-8 -106v-119l26 -203v-45l-10 -41l8 -22v-119h-35l-88 -14l-110 -29l-27 580v180l-8 51l12 8l82 140l92 -11h176l37 11l170 -11l23 9l16 -5l55 -51l60 -65v-236l-8 -26v-19l24 -12l-10 -27v-282l10 -224 l-67 -49l-162 -102l-17 -2l-41 -41l-100 -76l4 -18l10 -9h379v-172l27 -51h-721z" />
<glyph unicode="3" horiz-adv-x="913" d="M848 188l-33 -63l-74 -96l-61 12h-246l-102 -12h-94l-129 123v397l215 -25l-11 -96l11 -29v-77l-7 -15v-24l33 -58h135l142 8v244l-19 178l-41 25h-190l-88 -25v254l57 -18h60l178 18l24 31l-26 330l-23 24h-252l-4 -16l-20 -25l16 -18v-170l8 -43h-74l-153 -43v334 l-19 53l95 135h526l31 -35l82 -69l16 -2l-8 -142l26 -350l-118 -76l39 -61l79 -47v-191l17 -32v-93l-8 -34l4 -17l-4 -43l10 -76v-45z" />
<glyph unicode="4" horiz-adv-x="878" d="M834 240h-144l-8 -179l10 -34l-53 -7h-156v31l13 17v149l-9 14h-424v316l379 905h224l-9 -22v-875l41 -115l136 -10v-190zM473 428v338l-16 16l6 49l-6 46l6 20v74l-207 -543h217z" />
<glyph unicode="5" horiz-adv-x="931" d="M870 188l-104 -174h-500l-127 138l-20 200l-8 178l10 113l108 -8h78l41 18v-366l35 -37h190l39 14l25 19v24l-23 17v553l-32 32h-236l-18 -10l-209 16l-15 -6l-36 578l36 -14l21 24l82 -4l26 14h43l35 -10l13 6h168l16 -14l74 18h243l19 -12v-35l-17 -26v-179l-43 9 l-145 6l-121 -6h-172l-37 -17v-43l10 -71l23 -27h39l10 16l12 -6h265l90 23v-35l102 -86l-8 -23v-45l8 -61l-4 -84l-20 -21l6 -6l28 2v-592z" />
<glyph unicode="6" horiz-adv-x="956" d="M883 139l-11 -10l-16 2l-88 -137l-250 18h-262l-23 -12h-38l-25 59v19l-49 16l-19 41v180l-16 29v207h14l-8 35v809l19 8l20 20l14 27h19l6 6v19l16 2l43 63l195 -14h301l8 -23l125 -96v-47l16 -57v-56l-16 -16l25 -66v-204l-228 30v266l13 39l-47 21h-252l-76 -8v-27 l14 -12l-6 -29v-106l16 -271h504l-2 -47l76 -57zM684 221l-29 334l11 63l-13 17h-327v-414h358z" />
<glyph unicode="7" horiz-adv-x="962" d="M899 1536l-25 -143v-25l-24 -49l4 -43l-10 -6v-66l-49 -315l-33 -96l-4 -45l6 -13v-37l-25 -24v-53l-32 -113v-41l-41 -129l20 -31l-18 -4l-19 -41l-37 -199l4 -53h-206v66l26 123l4 53l88 534l74 385l41 160l-256 -37h-252l-69 6v181l-7 65h840v-10z" />
<glyph unicode="8" horiz-adv-x="929" d="M864 178l-6 -20l-90 -117v-18h-532l-136 157v543l123 72l-104 69l-47 27v481l123 160h524l117 -135v-486l16 -6v-63l-150 -84l33 -31l117 -20l12 -301v-228zM637 889v416h-354v-408l14 -20l20 12h320zM670 246l-19 141v264h-372l22 -86v-327h217l135 12z" />
<glyph unicode="9" horiz-adv-x="956" d="M887 176l-99 -143l-12 -8v-21l-117 10h-247l-160 -8l-133 105v229l-21 188l217 9l21 -158v-45l-12 -78l10 -16h338l16 10l-14 53l-23 346l-10 10l-78 -6h-282l-183 92v181l-6 12v418l-12 47l129 141l31 2l82 -10h411l35 -4l86 -111l6 -110l-4 -25l29 -297v-211l-6 -69 l8 -17l-6 -24v-160l-13 -72l15 -74v-165zM666 895l-11 78l-14 244v102h-121l-164 -8l-49 -13l10 -71l-12 -51l19 -15l-11 -51v-225h27l35 10h291z" />
<glyph unicode=":" horiz-adv-x="411" d="M360 584l-86 -68h-79l-50 29l-39 47l-24 53v45l31 49l45 43l49 27h49l49 -33l35 -51l20 -61v-80zM360 92l-86 -67h-79l-50 28l-39 47l-24 54v45l31 49l45 43l49 26h49l49 -32l35 -52l20 -61v-80z" />
<glyph unicode=";" horiz-adv-x="415" d="M362 168l-2 -25l-51 -219l-168 17l-53 268v20l31 47l45 41l49 27h45l47 -33l35 -49l22 -63v-31zM365 647l-3 -55l-83 -66h-78l-49 29l-41 45l-25 55v45l31 50l45 43l49 26h47l49 -28l37 -50l21 -61v-33z" />
<glyph unicode="&#x3c;" horiz-adv-x="872" d="M827 307l-399 123l-8 12l-129 70h-35l-184 90v359l39 4l77 30l37 25l6 -12l263 108l12 -2l135 53l29 -4l96 45l57 13v-199l-626 -244l252 -88l331 -143h39z" />
<glyph unicode="=" horiz-adv-x="872" d="M831 477h-333l-375 -24l-35 12v248h743v-236zM817 823h-739v236h491l248 10v-246z" />
<glyph unicode="&#x3e;" horiz-adv-x="872" d="M72 1221l399 -123l8 -13l129 -69h35l184 -90v-359l-39 -4l-77 -31l-37 -24l-6 12l-262 -108l-13 2l-135 -54l-29 5l-96 -46l-57 -12v199l626 244l-251 88l-332 143h-39z" />
<glyph unicode="?" horiz-adv-x="819" d="M766 733l-197 -88l-14 -29l-176 -137v-59l8 -76l-258 -16l-10 176l10 39l416 362l-8 53v256l-5 43l-40 15h-181l-32 -15l-11 -141l17 -43l10 -94l-117 -12l-117 -31l-30 362v72l92 146h498l90 -64l30 -57v-181l25 -30v-451zM408 84l-86 -66h-78l-49 29l-41 45l-25 55v46 l31 49l45 43l51 26h47l49 -32l35 -50l21 -61v-84z" />
<glyph unicode="@" horiz-adv-x="1437" d="M1313 481h-815v649h510v-403h127v485l6 31v98h-809l28 -415l-12 -25v-446l-10 -17l16 -16v-96l-6 -62h672v-215h-862l-8 27l-29 522l10 70l-12 55l20 238l-30 34l22 68l-16 8l18 90l-18 29l14 12v344h1167l74 -28v-977l10 -82zM831 702v234l-86 -12h-98l17 -222h167z" />
<glyph unicode="A" horiz-adv-x="925" d="M860 16l-8 -8h-45l-109 17l-26 -5l-43 46l4 77l-17 11v16l11 10l-37 60l10 30l-65 -16l-52 4l-151 -6l-21 27l-22 -60l-33 -133l-8 -72l-203 19l78 645l90 477l20 64v86l15 16v59l20 39l13 94l284 -12l8 -78l17 -53l20 -41l11 -8v-84l24 -41l-4 -45l14 2l43 -211l19 -24 l26 -158l27 -98l-6 -17l41 -153l12 -74l4 -72l21 -39v-10l-11 -16l9 -23l12 -131zM459 1130h-25l-53 -485h18v-12l-32 -72l-19 -65l43 8l164 10z" />
<glyph unicode="B" horiz-adv-x="962" d="M92 31v925l-37 33l6 25v133l19 164v178l-4 43l151 -10h492v-650l151 7l11 -13v-835h-789zM643 240l-14 182v231l-178 -16h-136l-6 -37v-360l45 -7h181zM492 1307h-181v-291l-6 -4v-25l12 -26l-12 -19l12 -29l-18 -18l18 -6l-2 -27h189v420z" />
<glyph unicode="C" horiz-adv-x="907" d="M827 51l-14 -14l-182 16h-445l-86 -4l-12 88l-16 201v172l-9 41l11 106l-13 37v197l21 70v200l-25 29l15 12v344h673l37 6l37 -34l-12 -48v-559l-53 9l-37 18l-19 -2l-10 16l-37 -10h-22l-43 12v260l8 35v92h-320v-108l29 -299l-12 -29v-456l-10 -11l16 -16l-12 -35v-35 l12 -6l-6 -82l67 -10h263v356l206 54v-613z" />
<glyph unicode="D" horiz-adv-x="1001" d="M903 184l-16 -14l-64 -84l-45 -72l-164 9h-536l12 8v119l-12 104l14 -2l25 8l28 -16l70 4v1012l-10 45l-125 -11l-14 6l8 23v119l-8 108l694 -37l37 -59l106 -133v-1137zM688 240l-29 358l-12 84l19 6l-23 205v145l21 269h-238l14 -129v-947h131z" />
<glyph unicode="E" horiz-adv-x="806" d="M788 2l-79 4l-31 -6l-19 12l-79 -12h-512v92l-17 72v1337l-18 8h698l43 -16v-217l-33 14h-393l-84 -4l-12 -12v-144l10 -77v-142l17 -14h204l133 14l5 -88l-9 -8l11 -145h-371l24 -133v-168l-6 -66l9 -88h509v-213z" />
<glyph unicode="F" horiz-adv-x="788" d="M754 1260h-498v-347l41 -14h94l207 16v-110l14 -150l-16 -37h-346v-172l18 -63l-26 -354h-21l-78 20l-106 -8l-10 186v930l18 361h709v-258z" />
<glyph unicode="G" horiz-adv-x="962" d="M907 23l-20 -7h-213l-27 11l-98 -9h-109l-102 15h-72l-12 -13l-31 7h-119l-14 202v478l-31 507v277l13 35l88 -8h688l14 -23l-8 -72v-65l10 -51l-8 -31l4 -27v2l25 -231h-238v250l-18 12h-344l-2 -14l-15 -21l21 -10v-547l4 -10l10 -2l-18 -41l16 -12l-10 -144l18 -12 l-16 -45l4 -92l12 -6l-2 -11l-10 -10l10 -35l-4 -16l367 22l-4 -8h14l4 41l-25 379h-235l-16 225l20 -10h354l109 10v-272l16 -190v-428z" />
<glyph unicode="H" horiz-adv-x="989" d="M928 473l-19 -35v-428h-239l-43 107v471l-195 -13h-59l-4 -4l6 -36v-17l18 -8l-18 -18v-15l12 -8l-10 -18l-6 -148l10 -145l-6 -17v-116l-13 -15h-231l-41 53l-16 37l24 21v57l-18 12l24 50l-18 24l2 33l16 72l-16 55v553l10 6l-8 16v154l10 64v217l-14 77l12 13h262 l46 -574l-13 -6l2 -35l-8 -6l16 -35l142 9l94 16l-8 35v397l-10 199h249l15 -56v-86l-13 -26l9 -62l28 -123l-10 -4l-8 -12l22 -166l9 -12l-2 -14l-11 -13l19 -73v-349l-4 -20l-11 -10l7 -6z" />
<glyph unicode="I" horiz-adv-x="456" d="M391 387l-16 -59v-250l-13 2v-76l9 -6h-260l-27 98l12 29v133l-12 356l8 17v186l-14 21l12 20l-6 86l6 135l6 8l-12 9l4 43l12 22l-16 21l12 39v227l15 76h170l65 6l29 -246v-668l6 -145l-4 -76z" />
<glyph unicode="J" horiz-adv-x="1050" d="M956 788l-10 -106v-408l4 -10l-4 -2l-12 -176l-14 -66h-820l2 7l-14 45v112l-8 125l-10 45l10 52v196l12 39h53l205 -20l15 -21v-35l-19 -14l12 -35v-127l-24 -43v-76l6 -8h176l158 -18v73l6 29l-8 10l4 11v446l18 8v56l11 100v233l-31 277h276v-694z" />
<glyph unicode="K" horiz-adv-x="884" d="M827 1475l-284 -586l8 -68l27 -125l200 -669h-198l-187 653l-86 -158v-477h-241l26 508v561l10 19v122l-16 238h229v-510l273 502l98 4l84 -6z" />
<glyph unicode="L" horiz-adv-x="862" d="M862 0h-825v1241l-10 221l-9 45h234l-12 -106v-68l32 -2v-491l17 -19v-393l-8 -129l-11 -47l15 -10l2 -13l303 13l4 18l12 -2l10 -10h246v-248z" />
<glyph unicode="M" horiz-adv-x="925" d="M860 604l-6 -8v-76l-6 -39l12 -16v-25l-8 2l-4 -45l8 -8l-12 -110v-123l-15 -21v-125l-12 -26h-158l-34 12l-23 14v563l16 246l-45 -147l-16 -94l-31 -89l-10 -104l-33 -16l-30 8l-29 117l-131 362l16 -328v-327l-20 -187l-8 -18h-175l-36 117v1312l30 78l17 13l141 6 l168 -371l33 -123v14l16 39l53 254l23 23l55 158h199l41 -340h6v-11l-10 -10l12 -41v-201l12 -22l-14 -35z" />
<glyph unicode="N" horiz-adv-x="993" d="M922 625l8 -9l-10 -30l6 -6l-13 -207l15 -23l-15 -6v-22l17 -9l-17 -20l-10 -41l-8 -234h-233l-13 25l6 18l-75 158l-105 244l-113 293l-43 137v-143l13 -29l-10 -59l16 -123l-2 -17l6 -14l-16 -465l-35 -10h-80l-10 10l-17 -6h-45l-30 6l-35 969v286l24 228l52 -10h104 l35 12l153 -340l13 -8l-4 -9l22 -49l2 -24l70 -146l112 -325l11 -11l-37 857l18 49h215l25 -256v-60l16 -153l8 -9v-20l-12 -6z" />
<glyph unicode="O" d="M846 395l2 -35l-6 -88l-8 -16l10 -8l-17 -8l7 -23l18 -33l-18 -16l12 -4l-10 -58l8 -116l-13 2l-16 16l-10 -18h-12l-11 16l-10 -10l-16 6h-92l-25 10v-10h-96l-99 10l-6 -12h-166l-133 12l-6 6l-10 -10h-17l-30 402v628l12 66v43l-12 12l14 37v14l-14 9l12 14l-16 295 h712l35 -19v-301l21 -28l-2 -25l-17 -47l13 -10l-9 -97l17 -10l-8 -110l12 -23v-31l-19 -14l25 -47l-12 -10l6 -25l-6 -18v-49l6 -21l-8 -12l6 -25l-4 -18l12 -8l-8 -23v-145l14 -9zM635 410l-6 116l-15 29v436l-16 6l14 23v211l6 61h-329l8 -123l-8 -16l10 -4v-10l-12 -19 l12 -41v-268l12 -14l-4 -9l-14 -8l31 -18l-35 -29l22 -135l6 -188l-18 -11l18 -22v-45l-10 -94l6 -13l181 13h133v104l-4 25l12 8v35z" />
<glyph unicode="P" horiz-adv-x="899" d="M868 1460l-12 -22v-508h-592v-514l25 -404l-21 -12l-43 12l-10 -2l-10 -10l-37 12h-53l-37 -10v1460l-12 23l4 24l114 -6l33 4l14 -8l150 6l14 -8h314l139 -6v-14zM659 1155v135h-405l18 -76v-59h387z" />
<glyph unicode="Q" horiz-adv-x="942" d="M852 449v-424l-164 12h-104v-80l-215 -16v96h-289v956l-31 535h789v-926l24 -43zM643 250l-12 168v155l-13 23l13 18l-13 29l13 21l-19 6v647h-325v-1043l14 -24h68v340l206 -17v-323h68z" />
<glyph unicode="R" horiz-adv-x="958" d="M88 236l-18 28l14 21v266l-23 14l11 10v105l-15 20l11 56v757h780v-49l26 -114v-56l-6 -14l35 -309l-6 -10l-14 -9l-127 9h-54l-14 -15l49 -235l86 -336l21 -109l-6 -8l14 -14l14 -84l-4 -29l19 -20l16 -113h-209l-94 274l-29 101l-86 405l-30 172h-158l33 -446v-168 l6 -139l-21 -187l-200 -8l-19 18l-2 35v181zM664 1153l-5 59l5 74h-381l12 -61v-43l-12 -29h381zM88 57l-2 -2v4z" />
<glyph unicode="S" horiz-adv-x="960" d="M899 297l-29 -135v-49l17 -27l-8 -70l-154 9l-20 -5h-592l-15 43l-14 130v438l8 12l86 4h133v-96l15 -21l-13 -10v-186l-6 -17l10 -88h359l-23 365l-575 274v641h323l11 9l34 -5l9 -8l65 13l10 -13l64 17l33 -2l6 -11l155 13l11 -13l47 -14l8 -90l-12 -6l24 -35v-57 l-8 -15l14 -26v-353l-206 19l-19 65v275l-37 4l-96 -6h-225v-80l12 -21l-8 -22v-49l8 -8l-6 -19v-43l27 -20l473 -246v-17l92 -40v-15l-10 -6l12 -293l-12 -59l14 -8l2 -23z" />
<glyph unicode="T" horiz-adv-x="950" d="M903 1251h-311v-1271l-162 14l-37 -17l-39 3v432l-4 18l8 12l-16 183l-8 10l20 49v567h-309v254h854v-47l-6 -18l10 -21v-168z" />
<glyph unicode="U" horiz-adv-x="974" d="M881 1497l-15 -94v-1397h-624l-166 -12v221l-8 25l24 172v1085h203v-674l24 -303l-8 -10l-16 -291h311l19 25v1253h256z" />
<glyph unicode="V" horiz-adv-x="937" d="M860 1413l-43 -186l6 -68l-45 -258v-37l-88 -504l-10 -22l12 -14l-22 -76l-27 -156l-4 -78h-334l-63 361v76l-64 264l-10 16l-109 805h213v-104l29 -89l64 -407l4 -98l30 -52l78 -522l215 1262h162z" />
<glyph unicode="W" horiz-adv-x="960" d="M872 1499l-12 -69l4 -17v-254h-8v-209l-22 -55l-43 -457l-23 -112l12 -2l-51 -150l6 -22l-8 -138h-162l-26 19l2 45l-31 483l-25 -2l-82 -532l-10 -7h-164l-166 1516h199l-14 -20v-89l16 -41l-6 -14l18 -90l43 -405l156 630l66 -282l69 -369l11 -14l8 -2l69 686h162z" />
<glyph unicode="X" horiz-adv-x="923" d="M895 41l-92 -18h-84l-27 10l-8 37l-154 338l-20 4l-16 10l2 29l-33 2l6 18l-12 21l-211 -465h-211l315 784l-315 719l229 -25l193 -469l57 160l25 88l59 143l27 86h227l-305 -718l14 -9l8 2z" />
<glyph unicode="Y" horiz-adv-x="849" d="M791 1530l-164 -379l-76 -242l-8 -75v-392l8 -36l-25 -19l6 -18v-328h-233v795l-12 82l-43 145l-193 485h238l135 -461l127 443h240z" />
<glyph unicode="Z" horiz-adv-x="870" d="M811 1315l-74 -92l-6 -43l-440 -949h514v-231h-111l-18 12l-96 -6h-496l-14 209l116 215l2 29l48 102l36 60l119 251l-6 19l31 39l4 45l135 301h-485l-23 233h758l6 -39v-155z" />
<glyph unicode="[" horiz-adv-x="444" d="M403 -262h-110l-17 6h-200l-13 94v1925h308l12 -24v-209l-109 8l-14 -10v-393l10 -56v-1126l133 16v-231z" />
<glyph unicode="\" horiz-adv-x="792" d="M592 37l-471 1143v16l-98 258v33l200 -8l4 -37l13 -31l12 -4v-31l16 -4l-6 -24l125 -265l2 -32l121 -279l51 -151l19 4v-33l-7 -8l19 -11l-6 -10l4 -39l24 -2l-2 -45l19 -12v-37l155 -391h-194z" />
<glyph unicode="]" horiz-adv-x="516" d="M98 -250l-10 21v209l107 -9l14 9v393l-8 57v1124l-135 -16v231h110l19 -6h200l11 -94v-1919h-308z" />
<glyph unicode="^" horiz-adv-x="911" d="M821 709h-278l-68 280l-22 -18l-60 -135l-28 -127h-242l-6 51l49 90l72 147l57 131h338l63 -135l35 -35z" />
<glyph unicode="_" horiz-adv-x="739" d="M739 -47l-59 20h-90l-170 -20h-336l-49 -12l-23 12h-12v223h465l231 10l43 -10v-223z" />
<glyph unicode="`" horiz-adv-x="413" d="M373 1624h-142l-41 10l-63 64l-86 110l192 21z" />
<glyph unicode="a" horiz-adv-x="903" d="M696 -12l-67 282h-338l-47 -272h-191l150 1102l10 4l25 139l38 133l11 119h196l84 6l15 -45l-2 -45l12 -10l43 -152l53 -235l113 -604l67 -422h-172zM586 512l-142 643v-145l-98 -498h240z" />
<glyph unicode="b" horiz-adv-x="888" d="M836 580l-17 -113l12 -289l-10 -61l8 -127l-30 10l-41 -4l-29 12h-104v-6h-99l-96 10l-6 -12h-238l-63 12l-6 6l-11 -10h-14l-16 205l-17 334v229l15 213v158l-13 12v369h578l35 -19v-301l20 -28l-2 -25l-16 -47l10 -10l-6 -97l16 -10l-8 -22v-95h141l-16 -61l16 -39 v-166l-4 -18zM618 471l-18 64v129l-63 -29h-246l6 -82l-12 -33l8 -18l10 -6l-6 -68l-8 -31l-4 2l16 -22l-8 -121l4 -31l180 13h135v110l-6 19l12 8v96zM475 1292h-201l7 -123l-9 -16l13 -4v-10l-13 -19l11 -35v-221h192v428z" />
<glyph unicode="c" horiz-adv-x="1005" d="M934 393l12 -39l-12 -61v-37h-12l-7 -6l17 -74l-10 -16v-56l6 -32l-13 -62l-118 17l-29 -13h-674l-28 248l16 12v50l-8 63v295l-17 106l6 5v94l-12 82l12 18l-8 27l8 2v471h857v-510l14 -35l-14 -8v-72l-50 -4l-6 8l-16 -24l-41 16l-25 -22l-4 14l-123 -31v357l-4 43 l6 34l-28 -6l-336 -16l18 -133v-137l13 -78v-62l10 -8v-569l160 18h182l2 6l-10 15l12 63l-18 33v127l-13 29l13 -3l6 19l-17 4v29l15 39h133l24 22h8l17 -12l26 8h54z" />
<glyph unicode="d" horiz-adv-x="1017" d="M956 725v-12l-14 -8v-295l-4 -41l12 -19l-10 -55l-6 -78l10 -16v-70l-76 -92l-84 -53h-706l-6 20l-13 117l-4 100l13 13v12l135 -10l10 16l-4 55l4 35l-6 21v65l12 43l-26 16v31l32 33l-18 18v406l-19 57l17 90l8 111l12 49h-149l6 31v76l-6 41l16 18l-8 14l-6 60h549 l149 14l144 -156l18 -297l12 -112l-12 -8l12 -19l-14 -51v-117zM694 276l-14 191l12 37l-30 123v30l6 19l-4 2l-15 59l13 8l-13 123v400h-198l24 -103v-336l-6 -12l10 -143v-438h211l4 20v20z" />
<glyph unicode="e" horiz-adv-x="825" d="M797 158l6 -90h-713l-33 673v498l-26 43l16 21v227h713l8 -25v-96l-6 -20l24 -107h-143l-352 -18l-17 -11l-2 -36l-22 -13l24 -262l127 8l74 -8l137 -29v-84l-14 -57l14 -29v-43l-338 -18l-8 -20l-10 -72v-58l10 -20v-178l25 -12h334l49 14l147 24z" />
<glyph unicode="f" horiz-adv-x="784" d="M752 1260h-498v-347l61 -20h220l61 6l-18 -49v-43l30 -137v-27l-12 -25h-346l-14 -223v-334l-93 -12l-108 8l-8 179v921l18 361h707v-258z" />
<glyph unicode="g" horiz-adv-x="931" d="M846 1516v-68l-31 -365h-217v205h-262l-27 -53v-932l19 -51l34 -8h115l17 -27l45 27l14 -8h33l12 6v383h-170v272h399v-881h-741v1500h760z" />
<glyph unicode="h" horiz-adv-x="1011" d="M639 10l23 31l10 45l-41 590h-246l-25 -19l27 -661l-37 14h-219l-57 1024v531h256l39 -619h282l19 27v51l-23 135v336l-8 78l84 -4l166 14l12 -29l-4 -51l23 -235l24 -535v-407l-10 -250l14 -33l4 -33h-313z" />
<glyph unicode="i" horiz-adv-x="446" d="M348 1511v-1312l-18 -217l-248 32v1471l-19 6l39 20h246z" />
<glyph unicode="j" horiz-adv-x="899" d="M836 606l-23 -67l16 -9l-16 -90l16 -28l-14 -13v-342h-674l-63 27v606l92 -26l18 4l13 -19l22 8l78 -8v-260l-6 -31v-96h319l-30 414l12 24v449l10 14l-16 17v372h196l25 -387l12 -125l-8 -104l10 -57l-18 -238z" />
<glyph unicode="k" horiz-adv-x="843" d="M793 68l-13 -41h-182l-201 616l-108 -201v-411h-203l-4 92l-14 123l-11 35l19 20l-8 100v1100h221v-592l10 -41l100 260h11l149 363h232l-259 -557z" />
<glyph unicode="l" horiz-adv-x="772" d="M772 27h-731v1468l-16 25h237l25 -492v-420l-15 -325l17 -15l483 43v-284z" />
<glyph unicode="m" d="M817 0h-196l-17 29v745l-100 -346l-31 -4l-125 317l-26 56l26 -238v-551h-221l-29 125v883l-24 483l39 31h188l152 -416l157 432h211l-26 -86l-9 -43l37 -41l-10 -100l16 -256l-6 -33l17 -24l-17 -45l8 -101v-110l-18 -62l25 -289v-338z" />
<glyph unicode="n" horiz-adv-x="952" d="M874 530l-6 -8v-315l-16 -6v-115l8 -59h-180l-371 938v-932h-200l-23 129l12 12l-35 367l11 41v872l-11 62h158l10 10l25 -10l47 10l41 -162l29 -29l63 -166l23 -12l-10 -12l34 -70l-6 -12l168 -422l17 -23v107l-35 356l10 13v194l-16 10l16 15v203h215v-498l16 -17 l-12 -30l16 -25v-358z" />
<glyph unicode="o" horiz-adv-x="942" d="M877 31h-787v952l-24 135v168l10 25v221l225 -10h547v-961zM639 240v663l-21 379l-14 25h-313l22 -346l-12 -19l12 -29l-16 -18l16 -6v-649h326z" />
<glyph unicode="p" horiz-adv-x="878" d="M834 856h-504v-813l-215 8l-49 -6v121l-11 90l11 10v617l-11 200l13 369l-11 41h777v-637zM608 1120v144h-301l4 -72l-4 -82l273 -27z" />
<glyph unicode="q" horiz-adv-x="905" d="M834 395l2 -35l-7 -88l-8 -16l10 -8l-16 -8l6 -23l19 -33l-19 -16l13 -4l-9 -51v-90l-18 -25h-156l-24 14v-10h-88v-82l-185 17v69h-213l-20 12l-10 -10h-17l-31 402v628l13 66v43l-13 12l15 37v14l-15 9l13 14l-17 295h713l35 -19v-301l20 -28l-2 -25l-16 -47l12 -10 l-6 -99l14 -8l-8 -110l13 -23v-31l-19 -14l16 -256v-145l15 -9zM623 410l-7 116l-14 29v436l-16 6l14 23v211l6 61h-330l9 -123l-9 -16l11 -4v-10l-11 -19l11 -45v-229l12 -49l-4 -9l-14 -8l30 -18l-35 -29l23 -135v-45l-12 -33l8 -18l10 -6v-39l-10 -11h-6l16 -36l-10 -11 h-8l18 -22v-45l-10 -94l6 -13h53v312l185 -17l16 -284l43 4l20 10v100l-8 17l13 8v35z" />
<glyph unicode="r" horiz-adv-x="950" d="M870 1198l-8 -35v-209l-182 -14l25 -168l8 -6l82 -381l-7 -25l70 -342h-188l-219 928l-29 -6h-66l-32 6l-23 -10l18 -428l-12 -29l12 -45v-22l-6 -19l13 -69l-19 -13l19 -26l-21 -76v-125l6 -55h-217l6 65v684l-24 318l8 186v219l4 31h758l18 -25l-6 -22v-279zM643 1247 l-4 47h-342v-96l342 -8z" />
<glyph unicode="s" horiz-adv-x="937" d="M881 412v-398h-799l-12 21v22l10 39v559l8 9l68 -9h137v-419l14 -13h117l14 13l6 -9h220l-13 72v268l-358 226l-193 139h-14l-14 39v76l-15 170v305h555l242 8v-518l-16 -6l-119 6l-62 -6l-12 12v295l-27 16l-61 12h-35l-16 -18h-227v-104l12 -138l432 -282l156 -92v-287 z" />
<glyph unicode="t" horiz-adv-x="940" d="M895 1292l-27 -26l-96 20h-117l-37 -6v-397l9 -72v-502l6 -30v-115l12 -19l-12 -4v-18l-10 -27v-49l10 -31l-25 -20h-198l-13 18v1256h-344l8 43v188l-16 35v12l8 8l191 -20h252l24 4l58 -8l92 4l14 -8l6 10l17 6l30 -2l25 -14h112l11 -41v-174z" />
<glyph unicode="u" horiz-adv-x="905" d="M842 766l-13 -10v-242l7 -119l-11 -139l11 -8l-17 -8l17 -250l-29 22h-371l-6 6h-307l-55 -10v1211l12 14l-19 295l242 -19v-712l-18 -17l28 -18l-10 -29v-508h315l-6 142v1149h133l64 -7v-639l27 -43l-17 -14z" />
<glyph unicode="v" horiz-adv-x="944" d="M868 1520l-108 -805l-12 -17l-62 -260v-67l-80 -373h-317l-4 78l-27 155l-22 76l10 15l-96 526l2 22l-48 273l5 59l-41 195l-11 112h176l218 -1261l77 508l127 667v80z" />
<glyph unicode="w" horiz-adv-x="987" d="M901 1534l-29 -211l-28 -270v-217l-15 -271l-38 -381v-37l18 -116h-82l-129 18v33l8 8l-114 498l-11 2l-53 -549l-137 6l-35 -8l-37 297l-86 594l-16 39l-31 596h45l10 -19h117l51 -20l-4 -80l68 -461h6l22 191l54 278l32 111h19l16 -11v-51l17 -123l82 -350h8l10 180 v176l12 66l-10 82l4 16h225l21 -6z" />
<glyph unicode="x" horiz-adv-x="909" d="M885 1538l-56 -82l-260 -684l170 -461l127 -288h-204l-193 444l-12 4l-11 37l-178 -404v-55l-10 -26h-231l338 733l-3 20l-65 154l-162 448l-82 178l223 -26v-29l-8 -14l205 -459l184 510h76l23 -6z" />
<glyph unicode="y" horiz-adv-x="819" d="M793 1540l-97 -240l-114 -323l-47 -234v-712h-242v338l24 18l-24 19l10 36v402l-162 483l-88 219h240l127 -491l39 186l96 299h238z" />
<glyph unicode="z" horiz-adv-x="829" d="M795 31h-756l-4 28v166l61 84l17 51l438 949h-512v231h111l18 -12l96 6h508v-209l-115 -213l-2 -31l-49 -104l-35 -57l-120 -250l6 -21l-29 -39l-10 -59l-131 -287h485z" />
<glyph unicode="{" horiz-adv-x="444" d="M403 -262h-110l-17 6h-200l-13 94v1925h308l12 -24v-209l-109 8l-14 -10v-393l10 -56v-1126l133 16v-231z" />
<glyph unicode="|" horiz-adv-x="620" d="M225 -268l-14 65l-4 43v1852l18 98h119l41 8l14 -117l17 -258v-1265l20 -8l-10 -29l-12 -109v-184l-11 -8l-2 -47l2 -41h-178z" />
<glyph unicode="}" horiz-adv-x="516" d="M98 -250l-10 21v209l107 -9l14 9v393l-8 57v1124l-135 -16v231h110l19 -6h200l11 -94v-1919h-308z" />
<glyph unicode="~" horiz-adv-x="956" d="M868 911l15 -141l-29 -22l-12 -146h-393l-154 195l-35 -183l-201 -18l11 131l14 31l6 112l49 33h336l60 -84l36 -14l66 -80l16 186h215z" />
<glyph unicode="&#xa1;" horiz-adv-x="477" d="M406 631l-9 -10l-12 -209v-238l14 -20l-26 -58h-262l12 2v47l-14 9v149l-17 39l14 6l-4 53l25 557l10 48h236l22 -66v-213l4 -29l-6 -55zM383 1251l10 -30l-33 -60l-36 -49l-48 -31h-47l-51 27l-43 41l-31 47v47l25 55l39 45l49 29h68l55 -26l31 -37l12 -43v-15z" />
<glyph unicode="&#xa2;" horiz-adv-x="907" d="M580 1614v-68h225l-17 -205h-208v-1087h215l10 -201h-232v-98l-116 37v61h-271l-86 -4l-12 88l-16 201v172l-9 41l11 106l-13 37v197l21 70v200l-25 29l15 12v344h385v39l-11 6l19 23h115zM358 254h107v1087h-191v-108l29 -299l-12 -29v-456l-10 -11l16 -16l-12 -35v-35 l12 -6l-6 -82z" />
<glyph unicode="&#xa3;" horiz-adv-x="1138" d="M784 578h-372v-320h643v-235h-574l-375 -25l-34 12v248h90v320h-117v235h119v432l14 176l15 66h819l-2 -6l14 -45v-113l8 -125l10 -45l-10 -51v-197l-12 -39h-53l-205 21l-14 20v35l18 14l-12 35v127l24 43v76l-6 8h-176l-158 19v-74l-6 -29l8 -10l-4 -10v-328h101 l247 10v-245z" />
<glyph unicode="&#xa4;" d="M786 270l-104 115h-55l-21 10v-10h-76l-77 10l-4 -12h-132l-63 6l-8 -12l-113 -109l-86 131l127 142l-12 200l10 90l-10 9l8 14l-4 104l-123 152l119 96l86 -96h438l80 90l-4 12l24 -8l103 -112l-139 -156v-105l16 -24l-2 -23l-2 -2h6l4 -84l-4 -75l-8 -15l8 -6l-12 -8 l4 -19l14 -30l-8 -10l117 -125l10 2l-6 -29zM602 733h-18v119l6 51h-260l6 -106l-6 -15h22l2 -41l-16 -6l16 -20v-41l-10 -82l6 -12l142 12h106v92l-4 21l8 8v20z" />
<glyph unicode="&#xa5;" horiz-adv-x="849" d="M809 557h-266v-74h282v-155h-293v-287h-233v278h-250v164h250v74h-260v158h260v121l-12 82l-43 145l-193 485h238l135 -461l127 443h240l-164 -379l-76 -242l-8 -75v-119h266v-158z" />
<glyph unicode="&#xa6;" horiz-adv-x="620" d="M225 -268l-14 65l-4 43v692h209v-374l20 -8l-10 -29l-12 -109v-184l-11 -8l-2 -47l2 -41h-178zM416 991h-209v701l18 98h119l41 8l14 -117l17 -258v-432z" />
<glyph unicode="&#xa7;" horiz-adv-x="937" d="M897 12v-334h-815l-12 17v20l10 33v469l8 6l70 -6h139v-352l14 -10h121l14 10l7 -8h223l-12 61v225l-367 189l-197 117h-14l-14 32v64l-15 143v256h183l-140 84h-14l-14 33v63l-15 142v241l813 23v-436l-16 -4l-123 4l-61 -4l-13 10v248l-28 14l-62 10h-35l-18 -16h-231 v-219l616 -299v-240v-264l-162 -8l158 -70v-238zM295 575l260 -139h121l-12 60v225l-138 70l-12 -13h-231v-88z" />
<glyph unicode="&#xa8;" horiz-adv-x="655" d="M244 1612h-203v194h178l8 -30zM614 1604l-36 10l-144 -10v211h180v-211z" />
<glyph unicode="&#xaa;" horiz-adv-x="581" d="M516 618l-12 -10l-98 8l-9 -4l-32 35v43l-5 8l2 17l-18 28l2 5l-20 -5l-103 -2l-16 9l-23 -60l-8 -80l-133 13l33 276l41 238l4 53l20 76l6 61l-4 10l13 11v20l18 92l178 -8l4 -47l21 -55l6 -2v-37l14 -35v-14l-8 -2l14 -11l7 -49l16 -61l10 -15l2 -37l29 -110l-4 -8 l8 -11l-4 3l8 -15v2l4 -8l-4 -18l23 -127l8 -2v-17l-6 -10l10 -86zM283 1108l-11 -6v-19l9 -14l-15 -27v-32l-12 -33l8 -6l-2 -15l-8 -10l-14 -45l84 6zM279 1124l-3 11l-2 -7z" />
<glyph unicode="&#xab;" horiz-adv-x="888" d="M745 1034v-174l-135 -98l21 -47l131 -92v-162l-45 -8l-111 114l-147 176l121 140l22 45l47 20l62 84zM389 1038l-10 -180l-107 -88l-16 -39l127 -100l12 -166l-35 -21l-108 142l-23 -2l2 24l-139 140l262 299z" />
<glyph unicode="&#xac;" horiz-adv-x="1083" d="M788 281l27 452h-446l-326 23v194l55 -14h899v-655h-209z" />
<glyph unicode="&#xad;" horiz-adv-x="909" d="M823 641l-59 21h-90l-170 -21h-318l-65 -25l-23 13h-14v235h635l104 13v-236z" />
<glyph unicode="&#xaf;" horiz-adv-x="727" d="M674 1640l-45 17h-86l-166 -17h-266l-35 -20l-27 10v191h625v-181z" />
<glyph unicode="&#xb0;" horiz-adv-x="696" d="M627 1018l-166 10l-2 -6h-305l-76 4v504l-6 121h528l14 -9v-122l11 -13l-7 -73l7 -4zM487 1270v229h-278l2 -39l16 -26l-12 -260l2 -5h272l5 48z" />
<glyph unicode="&#xb1;" horiz-adv-x="886" d="M815 641l-59 21h-109l-80 -9v-276h-243l16 129v131h-156l-26 -4l-45 -17l-23 13h-14v235h262v256h240v-256h120l117 13v-236zM815 29l-59 20h-109l-307 -24h-156l-26 -5l-45 -16l-23 12h-14v236h622l117 12v-235z" />
<glyph unicode="&#xb2;" horiz-adv-x="544" d="M70 716l-9 142l11 20l139 113l115 121l-9 125v137l-14 14h-94l-10 -4l-2 -88l14 -147l-4 -39l2 -91l-72 -2l-78 -20l-20 463l16 10l41 74l156 -4l14 6l90 -6l21 6l59 -41l6 -14l19 -19v-135l-4 -21l16 -6l-10 -20v-164l6 -121l-129 -84l-12 -2l-2 -12l-66 -45h213v-80 l21 -66h-424z" />
<glyph unicode="&#xb3;" horiz-adv-x="575" d="M508 829v-39l-62 -84l-47 4h-235l-27 17l-57 51v237l139 -16l-4 -61l4 -15l2 -73l10 -11l19 -6l115 6v121l-11 94l-22 8h-92l-62 -16v168l45 -12l125 10l6 8l-14 174l-8 6h-125l-6 -12l6 -22l6 -119l-55 4l-95 -27v189l-12 41l62 84h297l24 -29l41 -31l14 -2l-6 -43 l15 -241l-60 -39l19 -29l41 -23v-108l10 -21l-6 -102z" />
<glyph unicode="&#xb4;" horiz-adv-x="413" d="M373 1808l-11 -22l-139 -152l-41 -10h-141l137 205z" />
<glyph unicode="&#xb6;" horiz-adv-x="1093" d="M55 1493h944v-1446l11 -221l8 -45h-234l13 106v68l-33 2v696l-16 19v393l8 129l10 47l-14 10l-2 13l-127 -13l6 -168l-11 -200v-883l11 -10l-11 -90v-121l-49 6l-215 -8v1079h-299v637z" />
<glyph unicode="&#xb7;" horiz-adv-x="452" d="M369 670l-86 -66h-78l-49 29l-41 45l-25 55v45l31 49l45 43l51 27h47l49 -33l35 -49l21 -61v-84z" />
<glyph unicode="&#xb8;" horiz-adv-x="401" d="M338 -225l-2 -25l-51 -219l-168 16l-54 269v20l31 47l43 41l49 27h47l48 -31l36 -51l21 -64v-30z" />
<glyph unicode="&#xb9;" horiz-adv-x="403" d="M319 1239l-8 -27l6 -193v-186l-8 -133l-110 4l-27 -6v465l-14 6l8 16l-2 9l-21 20l17 2l-2 49l-43 -22l-15 2l-32 -25v236l73 71l4 25l29 8h80l55 -8v-174l8 -6v-23l-10 -6l6 -53l-8 10l8 -41z" />
<glyph unicode="&#xba;" horiz-adv-x="579" d="M510 709l-8 -47l4 -68l-27 8l-86 4l-6 4l-4 -6l-100 4l-4 -6h-164l-11 8l-24 -2l-19 307v125l7 199l-7 10l9 23l-9 6l7 18l-11 170h408l29 -14v-141l6 -37l6 -8l-10 -39l4 -8l-4 -50l12 -4l-6 -24v-39l6 -39l-10 -6l14 -23l-6 -8l-2 -22l4 -35l-4 -11l2 -16l6 -4l-6 -74 l2 -37l-6 -69l10 -6l-12 -11l6 -16l14 -14zM369 840l-13 88v223l-12 8l14 21v135h-157v-62l6 -4v-12l-8 -8v-133l18 -43l-6 -6l25 -15l-35 -20l12 -68l-6 -43l12 -10l-2 -29l-8 -8l6 -4l2 -12l-6 -7l6 -16l-6 -65l154 6l-5 65l9 6v13z" />
<glyph unicode="&#xbb;" horiz-adv-x="888" d="M96 457l10 174l136 98l-21 47l-131 92v162l45 8l111 -114l139 -185l-106 -114l-27 -45l-49 -37l-72 -84zM463 453l-6 172l137 96l-6 33l-107 114l-24 158l35 21l147 -181l23 -4l-3 -18l101 -101l-262 -299z" />
<glyph unicode="&#xbc;" horiz-adv-x="1308" d="M360 1239l-8 -27l6 -193v-186l-8 -133l-110 4l-27 -6v465l-14 6l8 16l-2 9l-21 20l17 2l-2 49l-43 -22l-15 2l-32 -25v236l73 71l4 25l29 8h80l55 -8v-174l8 -6v-23l-10 -6l6 -53l-8 10l8 -41zM1085 1427l-39 -69l-76 -117l-28 -61l-686 -1143h-193l229 393l2 23l25 22 l8 47l25 2l12 39l-6 10l18 11l5 41l18 -4l121 235l26 16l-2 19l15 16l2 13l18 10l2 16l10 8l5 21l20 18l43 80l-2 17l174 258l-2 24l21 4l4 31l18 6l25 66h200zM1088 139h-78l-4 -90l10 -25l-57 -6h-84l6 115h-92l-146 -23v211l211 506h146l-9 -35v-297l23 -223h51l23 -8 v-125zM869 264v172l-11 8l4 45l-86 -225h93z" />
<glyph unicode="&#xbd;" horiz-adv-x="1298" d="M360 1239l-8 -27l6 -193v-186l-8 -133l-110 4l-27 -6v465l-14 6l8 16l-2 9l-21 20l17 2l-2 49l-43 -22l-15 2l-32 -25v236l73 71l4 25l29 8h80l55 -8v-174l8 -6v-23l-10 -6l6 -53l-8 10l8 -41zM1085 1427l-39 -69l-76 -117l-28 -61l-686 -1143h-193l229 393l2 23l25 22 l8 47l25 2l12 39l-6 10l18 11l5 41l18 -4l121 235l26 16l-2 19l15 16l2 13l18 10l2 16l10 8l5 21l20 18l43 80l-2 17l174 258l-2 24l21 4l4 31l18 6l25 66h200zM783 16l-9 142l11 20l139 113l115 121l-9 125v137l-14 14h-94l-10 -4l-2 -88l14 -147l-4 -39l2 -91l-72 -2 l-78 -20l-20 463l16 10l41 74l156 -4l14 6l90 -6l21 6l59 -41l6 -14l19 -19v-135l-4 -21l16 -6l-10 -20v-164l6 -121l-129 -84l-12 -2l-2 -12l-66 -45h213v-80l21 -66h-424z" />
<glyph unicode="&#xbe;" horiz-adv-x="1480" d="M549 829v-39l-62 -84l-47 4h-235l-27 17l-57 51v237l139 -16l-4 -61l4 -15l2 -73l10 -11l19 -6l115 6v121l-11 94l-22 8h-92l-62 -16v168l45 -12l125 10l6 8l-14 174l-8 6h-125l-6 -12l6 -22l6 -119l-55 4l-95 -27v189l-12 41l62 84h297l24 -29l41 -31l14 -2l-6 -43 l15 -241l-60 -39l19 -29l41 -23v-108l10 -21l-6 -102zM1257 1427l-39 -69l-76 -117l-28 -61l-686 -1143h-193l229 393l2 23l25 22l8 47l25 2l12 39l-6 10l18 11l5 41l18 -4l121 235l26 16l-2 19l15 16l2 13l18 10l2 16l10 8l5 21l20 18l43 80l-2 17l174 258l-2 24l21 4l4 31 l18 6l25 66h200zM1241 141h-78l-4 -90l10 -25l-57 -6h-84l6 115h-92l-146 -23v211l211 506h146l-9 -35v-297l23 -223h51l23 -8v-125zM1022 266v172l-11 8l4 45l-86 -225h93z" />
<glyph unicode="&#xbf;" horiz-adv-x="819" d="M702 70h-497l-90 65l-31 55v181l-25 30v453l197 86l14 31l176 135v59l-8 76l258 16l9 -196l-9 -17l-415 -362l16 -186v-166l37 -17h180l33 15l8 139h-4l-21 141l62 4l125 21l47 16l31 -360v-74zM696 1391l-30 -48l-43 -40l-52 -27h-49l-49 33l-35 49l-20 59v64l28 47 l43 26l50 13h43l49 -29l41 -47l24 -53v-47z" />
<glyph unicode="&#xc0;" horiz-adv-x="925" d="M860 16l-8 -8h-45l-109 17l-26 -5l-43 46l4 77l-17 11v16l11 10l-37 60l10 30l-65 -16l-52 4l-151 -6l-21 27l-22 -60l-33 -133l-8 -72l-203 19l78 645l90 477l20 64v86l15 16v59l20 39l13 94l284 -12l8 -78l17 -53l20 -41l11 -8v-84l24 -41l-4 -45l14 2l43 -211l19 -24 l26 -158l27 -98l-6 -17l41 -153l12 -74l4 -72l21 -39v-10l-11 -16l9 -23l12 -131zM459 1130h-25l-53 -485h18v-12l-32 -72l-19 -65l43 8l164 10zM629 1595h-142l-41 10l-63 64l-86 110l192 21z" />
<glyph unicode="&#xc1;" horiz-adv-x="925" d="M860 16l-8 -8h-45l-109 17l-26 -5l-43 46l4 77l-17 11v16l11 10l-37 60l10 30l-65 -16l-52 4l-151 -6l-21 27l-22 -60l-33 -133l-8 -72l-203 19l78 645l90 477l20 64v86l15 16v59l20 39l13 94l284 -12l8 -78l17 -53l20 -41l11 -8v-84l24 -41l-4 -45l14 2l43 -211l19 -24 l26 -158l27 -98l-6 -17l41 -153l12 -74l4 -72l21 -39v-10l-11 -16l9 -23l12 -131zM459 1130h-25l-53 -485h18v-12l-32 -72l-19 -65l43 8l164 10zM629 1779l-11 -22l-139 -152l-41 -10h-141l137 205z" />
<glyph unicode="&#xc2;" horiz-adv-x="925" d="M860 16l-8 -8h-45l-109 17l-26 -5l-43 46l4 77l-17 11v16l11 10l-37 60l10 30l-65 -16l-52 4l-151 -6l-21 27l-22 -60l-33 -133l-8 -72l-203 19l78 645l90 477l20 64v86l15 16v59l20 39l13 94l284 -12l8 -78l17 -53l20 -41l11 -8v-84l24 -41l-4 -45l14 2l43 -211l19 -24 l26 -158l27 -98l-6 -17l41 -153l12 -74l4 -72l21 -39v-10l-11 -16l9 -23l12 -131zM459 1130h-25l-53 -485h18v-12l-32 -72l-19 -65l43 8l164 10zM743 1583h-215l-70 145l-67 -145h-211l65 209h406z" />
<glyph unicode="&#xc3;" horiz-adv-x="925" d="M860 16l-8 -8h-45l-109 17l-26 -5l-43 46l4 77l-17 11v16l11 10l-37 60l10 30l-65 -16l-52 4l-151 -6l-21 27l-22 -60l-33 -133l-8 -72l-203 19l78 645l90 477l20 64v86l15 16v59l20 39l13 94l284 -12l8 -78l17 -53l20 -41l11 -8v-84l24 -41l-4 -45l14 2l43 -211l19 -24 l26 -158l27 -98l-6 -17l41 -153l12 -74l4 -72l21 -39v-10l-11 -16l9 -23l12 -131zM459 1130h-25l-53 -485h18v-12l-32 -72l-19 -65l43 8l164 10zM784 1814l-20 -221h-314l-123 139l-28 -131l-160 -12l27 219h305l129 -127l12 133h172z" />
<glyph unicode="&#xc4;" horiz-adv-x="925" d="M860 16l-8 -8h-45l-109 17l-26 -5l-43 46l4 77l-17 11v16l11 10l-37 60l10 30l-65 -16l-52 4l-151 -6l-21 27l-22 -60l-33 -133l-8 -72l-203 19l78 645l90 477l20 64v86l15 16v59l20 39l13 94l284 -12l8 -78l17 -53l20 -41l11 -8v-84l24 -41l-4 -45l14 2l43 -211l19 -24 l26 -158l27 -98l-6 -17l41 -153l12 -74l4 -72l21 -39v-10l-11 -16l9 -23l12 -131zM459 1130h-25l-53 -485h18v-12l-32 -72l-19 -65l43 8l164 10zM379 1583h-203v194h178l8 -30zM749 1575l-36 10l-144 -10v211h180v-211z" />
<glyph unicode="&#xc5;" horiz-adv-x="925" d="M623 1536l-56 -51l6 -62l17 -53l20 -41l11 -8v-84l24 -41l-4 -45l14 2l43 -211l19 -24l26 -158l27 -98l-6 -17l41 -153l12 -74l4 -72l21 -39v-10l-11 -16l9 -23l20 -242l-8 -8h-45l-109 17l-26 -5l-43 46l4 77l-17 11v16l11 10l-37 60l10 30l-65 -16l-52 4l-151 -6 l-21 27l-22 -60l-33 -133l-8 -72l-203 19l78 645l90 477l20 64v86l15 16v59l20 39l11 82l-39 35v115l30 65l54 47l69 27h78l70 -27l51 -47l31 -65v-115zM459 1130h-25l-53 -485h18v-12l-32 -72l-19 -65l43 8l164 10zM553 1661l-74 65h-98l-72 -63v-98l62 -56l114 -6l68 62 v96z" />
<glyph unicode="&#xc6;" horiz-adv-x="1423" d="M1333 2l-80 4l-30 -6l-19 12l-80 -12h-512v53l-12 13v79l-12 9v16l8 8v4l-35 58l10 30l-65 -16l-51 4l-152 -6l-20 27l-23 -60l-33 -133l-8 -72l-203 19l78 645l90 477l21 64v86l14 16v59l21 39l12 94h1024l43 -20v-217l-33 14h-393l-84 -4l-12 -12v-144l10 -77v-142 l16 -14h205l133 14v-241h-364l24 -133v-168l-6 -66l8 -88h510v-213zM575 1307l-63 -15l-82 11l-76 -508v-150h17v-12l-33 -72l-19 -65l43 8h232l16 422z" />
<glyph unicode="&#xc7;" horiz-adv-x="907" d="M827 51l-14 -14l-182 16h-445l-86 -4l-12 88l-16 201v172l-9 41l11 106l-13 37v197l21 70v200l-25 29l15 12v344h673l37 6l37 -34l-12 -48v-559l-53 9l-37 18l-19 -2l-10 16l-37 -10h-22l-43 12v260l8 35v92h-320v-108l29 -299l-12 -29v-456l-10 -11l16 -16l-12 -35v-35 l12 -6l-6 -82l67 -10h263v356l206 54v-613zM590 -225l-2 -25l-51 -219l-168 16l-54 269v20l31 47l43 41l49 27h47l48 -31l36 -51l21 -64v-30z" />
<glyph unicode="&#xc8;" horiz-adv-x="806" d="M788 2l-79 4l-31 -6l-19 12l-79 -12h-512v92l-17 72v1337l-18 8h698l43 -16v-217l-33 14h-393l-84 -4l-12 -12v-144l10 -77v-142l17 -14h204l133 14l5 -88l-9 -8l11 -145h-371l24 -133v-168l-6 -66l9 -88h509v-213zM570 1595h-142l-41 10l-63 64l-86 110l192 21z" />
<glyph unicode="&#xc9;" horiz-adv-x="806" d="M788 2l-79 4l-31 -6l-19 12l-79 -12h-512v92l-17 72v1337l-18 8h698l43 -16v-217l-33 14h-393l-84 -4l-12 -12v-144l10 -77v-142l17 -14h204l133 14l5 -88l-9 -8l11 -145h-371l24 -133v-168l-6 -66l9 -88h509v-213zM570 1779l-11 -22l-139 -152l-41 -10h-141l137 205z " />
<glyph unicode="&#xca;" horiz-adv-x="806" d="M788 2l-79 4l-31 -6l-19 12l-79 -12h-512v92l-17 72v1337l-18 8h698l43 -16v-217l-33 14h-393l-84 -4l-12 -12v-144l10 -77v-142l17 -14h204l133 14l5 -88l-9 -8l11 -145h-371l24 -133v-168l-6 -66l9 -88h509v-213zM684 1583h-215l-70 145l-67 -145h-211l65 209h406z" />
<glyph unicode="&#xcb;" horiz-adv-x="806" d="M788 2l-79 4l-31 -6l-19 12l-79 -12h-512v92l-17 72v1337l-18 8h698l43 -16v-217l-33 14h-393l-84 -4l-12 -12v-144l10 -77v-142l17 -14h204l133 14l5 -88l-9 -8l11 -145h-371l24 -133v-168l-6 -66l9 -88h509v-213zM320 1583h-203v194h178l8 -30zM690 1575l-36 10 l-144 -10v211h180v-211z" />
<glyph unicode="&#xcc;" horiz-adv-x="456" d="M391 387l-16 -59v-250l-13 2v-76l9 -6h-260l-27 98l12 29v133l-12 356l8 17v186l-14 21l12 20l-6 86l6 135l6 8l-12 9l4 43l12 22l-16 21l12 39v227l15 76h170l65 6l29 -246v-668l6 -145l-4 -76zM393 1595h-142l-41 10l-63 64l-86 110l192 21z" />
<glyph unicode="&#xcd;" horiz-adv-x="456" d="M391 387l-16 -59v-250l-13 2v-76l9 -6h-260l-27 98l12 29v133l-12 356l8 17v186l-14 21l12 20l-6 86l6 135l6 8l-12 9l4 43l12 22l-16 21l12 39v227l15 76h170l65 6l29 -246v-668l6 -145l-4 -76zM393 1779l-11 -22l-139 -152l-41 -10h-141l137 205z" />
<glyph unicode="&#xce;" horiz-adv-x="456" d="M391 387l-16 -59v-250l-13 2v-76l9 -6h-260l-27 98l12 29v133l-12 356l8 17v186l-14 21l12 20l-6 86l6 135l6 8l-12 9l4 43l12 22l-16 21l12 39v227l15 76h170l65 6l29 -246v-668l6 -145l-4 -76zM514 1583h-215l-70 145l-67 -145h-211l65 209h406z" />
<glyph unicode="&#xcf;" horiz-adv-x="456" d="M391 387l-16 -59v-250l-13 2v-76l9 -6h-260l-27 98l12 29v133l-12 356l8 17v186l-14 21l12 20l-6 86l6 135l6 8l-12 9l4 43l12 22l-16 21l12 39v227l15 76h170l65 6l29 -246v-668l6 -145l-4 -76zM150 1583h-203v194h178l8 -30zM520 1575l-36 10l-144 -10v211h180v-211z " />
<glyph unicode="&#xd0;" horiz-adv-x="1001" d="M903 184l-16 -14l-64 -84l-45 -72l-164 9h-536l12 8v119l-12 104l14 -2l25 8l28 -16l70 4v403h-123l17 191h106v418l-10 45l-125 -11l-14 6l8 23v119l-8 108l694 -37l37 -59l106 -133v-1137zM539 651h-99v-420h131l117 9l-29 358l-12 84l19 6l-23 205v145l21 269h-238 l14 -129v-322l82 14z" />
<glyph unicode="&#xd1;" horiz-adv-x="993" d="M922 625l8 -9l-10 -30l6 -6l-13 -207l15 -23l-15 -6v-22l17 -9l-17 -20l-10 -41l-8 -234h-233l-13 25l6 18l-75 158l-105 244l-113 293l-43 137v-143l13 -29l-10 -59l16 -123l-2 -17l6 -14l-16 -465l-35 -10h-80l-10 10l-17 -6h-45l-30 6l-35 969v286l24 228l52 -10h104 l35 12l153 -340l13 -8l-4 -9l22 -49l2 -24l70 -146l112 -325l11 -11l-37 857l18 49h215l25 -256v-60l16 -153l8 -9v-20l-12 -6zM819 1814l-20 -221h-314l-123 139l-28 -131l-160 -12l27 219h305l129 -127l12 133h172z" />
<glyph unicode="&#xd2;" d="M846 395l2 -35l-6 -88l-8 -16l10 -8l-17 -8l7 -23l18 -33l-18 -16l12 -4l-10 -58l8 -116l-13 2l-16 16l-10 -18h-12l-11 16l-10 -10l-16 6h-92l-25 10v-10h-96l-99 10l-6 -12h-166l-133 12l-6 6l-10 -10h-17l-30 402v628l12 66v43l-12 12l14 37v14l-14 9l12 14l-16 295 h712l35 -19v-301l21 -28l-2 -25l-17 -47l13 -10l-9 -97l17 -10l-8 -110l12 -23v-31l-19 -14l25 -47l-12 -10l6 -25l-6 -18v-49l6 -21l-8 -12l6 -25l-4 -18l12 -8l-8 -23v-145l14 -9zM635 410l-6 116l-15 29v436l-16 6l14 23v211l6 61h-329l8 -123l-8 -16l10 -4v-10l-12 -19 l12 -41v-268l12 -14l-4 -9l-14 -8l31 -18l-35 -29l22 -135l6 -188l-18 -11l18 -22v-45l-10 -94l6 -13l181 13h133v104l-4 25l12 8v35zM627 1595h-142l-41 10l-63 64l-86 110l192 21z" />
<glyph unicode="&#xd3;" d="M846 395l2 -35l-6 -88l-8 -16l10 -8l-17 -8l7 -23l18 -33l-18 -16l12 -4l-10 -58l8 -116l-13 2l-16 16l-10 -18h-12l-11 16l-10 -10l-16 6h-92l-25 10v-10h-96l-99 10l-6 -12h-166l-133 12l-6 6l-10 -10h-17l-30 402v628l12 66v43l-12 12l14 37v14l-14 9l12 14l-16 295 h712l35 -19v-301l21 -28l-2 -25l-17 -47l13 -10l-9 -97l17 -10l-8 -110l12 -23v-31l-19 -14l25 -47l-12 -10l6 -25l-6 -18v-49l6 -21l-8 -12l6 -25l-4 -18l12 -8l-8 -23v-145l14 -9zM635 410l-6 116l-15 29v436l-16 6l14 23v211l6 61h-329l8 -123l-8 -16l10 -4v-10l-12 -19 l12 -41v-268l12 -14l-4 -9l-14 -8l31 -18l-35 -29l22 -135l6 -188l-18 -11l18 -22v-45l-10 -94l6 -13l181 13h133v104l-4 25l12 8v35zM627 1779l-11 -22l-139 -152l-41 -10h-141l137 205z" />
<glyph unicode="&#xd4;" d="M846 395l2 -35l-6 -88l-8 -16l10 -8l-17 -8l7 -23l18 -33l-18 -16l12 -4l-10 -58l8 -116l-13 2l-16 16l-10 -18h-12l-11 16l-10 -10l-16 6h-92l-25 10v-10h-96l-99 10l-6 -12h-166l-133 12l-6 6l-10 -10h-17l-30 402v628l12 66v43l-12 12l14 37v14l-14 9l12 14l-16 295 h712l35 -19v-301l21 -28l-2 -25l-17 -47l13 -10l-9 -97l17 -10l-8 -110l12 -23v-31l-19 -14l25 -47l-12 -10l6 -25l-6 -18v-49l6 -21l-8 -12l6 -25l-4 -18l12 -8l-8 -23v-145l14 -9zM635 410l-6 116l-15 29v436l-16 6l14 23v211l6 61h-329l8 -123l-8 -16l10 -4v-10l-12 -19 l12 -41v-268l12 -14l-4 -9l-14 -8l31 -18l-35 -29l22 -135l6 -188l-18 -11l18 -22v-45l-10 -94l6 -13l181 13h133v104l-4 25l12 8v35zM741 1583h-215l-70 145l-67 -145h-211l65 209h406z" />
<glyph unicode="&#xd5;" d="M846 395l2 -35l-6 -88l-8 -16l10 -8l-17 -8l7 -23l18 -33l-18 -16l12 -4l-10 -58l8 -116l-13 2l-16 16l-10 -18h-12l-11 16l-10 -10l-16 6h-92l-25 10v-10h-96l-99 10l-6 -12h-166l-133 12l-6 6l-10 -10h-17l-30 402v628l12 66v43l-12 12l14 37v14l-14 9l12 14l-16 295 h712l35 -19v-301l21 -28l-2 -25l-17 -47l13 -10l-9 -97l17 -10l-8 -110l12 -23v-31l-19 -14l25 -47l-12 -10l6 -25l-6 -18v-49l6 -21l-8 -12l6 -25l-4 -18l12 -8l-8 -23v-145l14 -9zM635 410l-6 116l-15 29v436l-16 6l14 23v211l6 61h-329l8 -123l-8 -16l10 -4v-10l-12 -19 l12 -41v-268l12 -14l-4 -9l-14 -8l31 -18l-35 -29l22 -135l6 -188l-18 -11l18 -22v-45l-10 -94l6 -13l181 13h133v104l-4 25l12 8v35zM782 1814l-20 -221h-314l-123 139l-28 -131l-160 -12l27 219h305l129 -127l12 133h172z" />
<glyph unicode="&#xd6;" d="M846 395l2 -35l-6 -88l-8 -16l10 -8l-17 -8l7 -23l18 -33l-18 -16l12 -4l-10 -58l8 -116l-13 2l-16 16l-10 -18h-12l-11 16l-10 -10l-16 6h-92l-25 10v-10h-96l-99 10l-6 -12h-166l-133 12l-6 6l-10 -10h-17l-30 402v628l12 66v43l-12 12l14 37v14l-14 9l12 14l-16 295 h712l35 -19v-301l21 -28l-2 -25l-17 -47l13 -10l-9 -97l17 -10l-8 -110l12 -23v-31l-19 -14l25 -47l-12 -10l6 -25l-6 -18v-49l6 -21l-8 -12l6 -25l-4 -18l12 -8l-8 -23v-145l14 -9zM635 410l-6 116l-15 29v436l-16 6l14 23v211l6 61h-329l8 -123l-8 -16l10 -4v-10l-12 -19 l12 -41v-268l12 -14l-4 -9l-14 -8l31 -18l-35 -29l22 -135l6 -188l-18 -11l18 -22v-45l-10 -94l6 -13l181 13h133v104l-4 25l12 8v35zM377 1583h-203v194h178l8 -30zM747 1575l-36 10l-144 -10v211h180v-211z" />
<glyph unicode="&#xd7;" horiz-adv-x="886" d="M631 410l-27 57l-78 76l-61 51l-197 -195l-172 172l103 80l94 92l-111 111l-22 14l-43 21l-6 24l-11 11l166 168l187 -187l180 180l170 -167l-182 -183l86 -84l92 -73z" />
<glyph unicode="&#xd8;" d="M870 -10h-358l-41 22l-6 -12h-238l-94 8l-16 205l-17 334v981h680l19 -10l45 -9v-309l20 -20l-16 -72l10 -10v-496l19 -22zM350 610l240 680h-121l-156 8v-565l13 -86l14 -35zM659 471l-18 64v380l-244 -686h256v119z" />
<glyph unicode="&#xd9;" horiz-adv-x="974" d="M881 1497l-15 -94v-1397h-624l-166 -12v221l-8 25l24 172v1085h203v-674l24 -303l-8 -10l-16 -291h311l19 25v1253h256zM654 1595h-142l-41 10l-63 64l-86 110l192 21z" />
<glyph unicode="&#xda;" horiz-adv-x="974" d="M881 1497l-15 -94v-1397h-624l-166 -12v221l-8 25l24 172v1085h203v-674l24 -303l-8 -10l-16 -291h311l19 25v1253h256zM654 1779l-11 -22l-139 -152l-41 -10h-141l137 205z" />
<glyph unicode="&#xdb;" horiz-adv-x="974" d="M881 1497l-15 -94v-1397h-624l-166 -12v221l-8 25l24 172v1085h203v-674l24 -303l-8 -10l-16 -291h311l19 25v1253h256zM768 1583h-215l-70 145l-67 -145h-211l65 209h406z" />
<glyph unicode="&#xdc;" horiz-adv-x="974" d="M881 1497l-15 -94v-1397h-624l-166 -12v221l-8 25l24 172v1085h203v-674l24 -303l-8 -10l-16 -291h311l19 25v1253h256zM404 1583h-203v194h178l8 -30zM774 1575l-36 10l-144 -10v211h180v-211z" />
<glyph unicode="&#xdd;" horiz-adv-x="849" d="M791 1530l-164 -379l-76 -242l-8 -75v-392l8 -36l-25 -19l6 -18v-328h-233v795l-12 82l-43 145l-193 485h238l135 -461l127 443h240zM590 1779l-11 -22l-139 -152l-41 -10h-141l137 205z" />
<glyph unicode="&#xde;" horiz-adv-x="962" d="M883 1004l-13 -23v-508h-591v-57l24 -404l-20 -12l-43 12l-11 -2l-10 -10l-37 12h-53l-37 -10v1004l-12 22v481l119 -6l32 4v-465h492l139 -8v-14zM674 698v136h-406l19 -76v-60h387z" />
<glyph unicode="&#xdf;" horiz-adv-x="1921" d="M899 297l-29 -135v-49l17 -27l-8 -70l-154 9l-20 -5h-592l-15 43l-14 130v438l8 12l86 4h133v-96l15 -21l-13 -10v-186l-6 -17l10 -88h359l-23 365l-575 274v641h323l11 9l34 -5l9 -8l65 13l10 -13l64 17l33 -2l6 -11l155 13l11 -13l47 -14l8 -90l-12 -6l24 -35v-57 l-8 -15l14 -26v-353l-206 19l-19 65v275l-37 4l-96 -6h-225v-80l12 -21l-8 -22v-49l8 -8l-6 -19v-43l27 -20l473 -246v-17l92 -40v-15l-10 -6l12 -293l-12 -59l14 -8l2 -23zM1860 297l-29 -135v-49l17 -27l-8 -70l-154 9l-20 -5h-592l-15 43l-14 130v438l8 12l86 4h133v-96 l15 -21l-13 -10v-186l-6 -17l10 -88h359l-23 365l-575 274v641h323l11 9l34 -5l9 -8l65 13l10 -13l64 17l33 -2l6 -11l155 13l11 -13l47 -14l8 -90l-12 -6l24 -35v-57l-8 -15l14 -26v-353l-206 19l-19 65v275l-37 4l-96 -6h-225v-80l12 -21l-8 -22v-49l8 -8l-6 -19v-43 l27 -20l473 -246v-17l92 -40v-15l-10 -6l12 -293l-12 -59l14 -8l2 -23z" />
<glyph unicode="&#xe0;" horiz-adv-x="903" d="M696 -12l-67 282h-338l-47 -272h-191l150 1102l10 4l25 139l38 133l11 119h196l84 6l15 -45l-2 -45l12 -10l43 -152l53 -235l113 -604l67 -422h-172zM586 512l-142 643v-145l-98 -498h240zM617 1624h-142l-41 10l-63 64l-86 110l192 21z" />
<glyph unicode="&#xe1;" horiz-adv-x="903" d="M696 -12l-67 282h-338l-47 -272h-191l150 1102l10 4l25 139l38 133l11 119h196l84 6l15 -45l-2 -45l12 -10l43 -152l53 -235l113 -604l67 -422h-172zM586 512l-142 643v-145l-98 -498h240zM617 1808l-11 -22l-139 -152l-41 -10h-141l137 205z" />
<glyph unicode="&#xe2;" horiz-adv-x="903" d="M696 -12l-67 282h-338l-47 -272h-191l150 1102l10 4l25 139l38 133l11 119h196l84 6l15 -45l-2 -45l12 -10l43 -152l53 -235l113 -604l67 -422h-172zM586 512l-142 643v-145l-98 -498h240zM733 1612h-215l-70 145l-67 -145h-211l65 209h406z" />
<glyph unicode="&#xe3;" horiz-adv-x="903" d="M696 -12l-67 282h-338l-47 -272h-191l150 1102l10 4l25 139l38 133l11 119h196l84 6l15 -45l-2 -45l12 -10l43 -152l53 -235l113 -604l67 -422h-172zM586 512l-142 643v-145l-98 -498h240zM774 1843l-20 -221h-314l-123 139l-28 -131l-160 -12l27 219h305l129 -127 l12 133h172z" />
<glyph unicode="&#xe4;" horiz-adv-x="903" d="M696 -12l-67 282h-338l-47 -272h-191l150 1102l10 4l25 139l38 133l11 119h196l84 6l15 -45l-2 -45l12 -10l43 -152l53 -235l113 -604l67 -422h-172zM586 512l-142 643v-145l-98 -498h240zM367 1612h-203v194h178l8 -30zM737 1604l-36 10l-144 -10v211h180v-211z" />
<glyph unicode="&#xe5;" horiz-adv-x="903" d="M643 1567l-76 -68l15 -43l-2 -45l12 -10l43 -152l53 -235l113 -604l67 -422h-172l-67 282h-338l-47 -272h-191l150 1102l10 4l25 139l38 133l11 119h55l-82 72v114l31 66l53 47l70 27h78l69 -27l51 -47l31 -66v-114zM586 512l-142 643v-145l-98 -498h240zM573 1692 l-73 65h-99l-71 -63v-99l71 -63h101l71 63v97z" />
<glyph unicode="&#xe6;" horiz-adv-x="1423" d="M1333 2l-80 4l-30 -6l-19 12l-80 -12h-512v53l-12 13v79l-12 9v16l8 8v4l-35 58l10 30l-65 -16l-51 4l-152 -6l-20 27l-23 -60l-33 -133l-8 -72l-203 19l78 645l90 477l21 64v86l14 16v59l21 39l12 94h1024l43 -20v-217l-33 14h-393l-84 -4l-12 -12v-144l10 -77v-142 l16 -14h205l133 14v-241h-364l24 -133v-168l-6 -66l8 -88h510v-213zM575 1307l-63 -15l-82 11l-76 -508v-150h17v-12l-33 -72l-19 -65l43 8h232l16 422z" />
<glyph unicode="&#xe7;" horiz-adv-x="1005" d="M934 393l12 -39l-12 -61v-37h-12l-7 -6l17 -74l-10 -16v-56l6 -32l-13 -62l-118 17l-29 -13h-674l-28 248l16 12v50l-8 63v295l-17 106l6 5v94l-12 82l12 18l-8 27l8 2v471h857v-510l14 -35l-14 -8v-72l-50 -4l-6 8l-16 -24l-41 16l-25 -22l-4 14l-123 -31v357l-4 43 l6 34l-28 -6l-336 -16l18 -133v-137l13 -78v-62l10 -8v-569l160 18h182l2 6l-10 15l12 63l-18 33v127l-13 29l13 -3l6 19l-17 4v29l15 39h133l24 22h8l17 -12l26 8h54zM639 -225l-2 -25l-51 -219l-168 16l-54 269v20l31 47l43 41l49 27h47l48 -31l36 -51l21 -64v-30z" />
<glyph unicode="&#xe8;" horiz-adv-x="825" d="M797 158l6 -90h-713l-33 673v498l-26 43l16 21v227h713l8 -25v-96l-6 -20l24 -107h-143l-352 -18l-17 -11l-2 -36l-22 -13l24 -262l127 8l74 -8l137 -29v-84l-14 -57l14 -29v-43l-338 -18l-8 -20l-10 -72v-58l10 -20v-178l25 -12h334l49 14l147 24zM578 1624h-142l-41 10 l-63 64l-86 110l192 21z" />
<glyph unicode="&#xe9;" horiz-adv-x="825" d="M797 158l6 -90h-713l-33 673v498l-26 43l16 21v227h713l8 -25v-96l-6 -20l24 -107h-143l-352 -18l-17 -11l-2 -36l-22 -13l24 -262l127 8l74 -8l137 -29v-84l-14 -57l14 -29v-43l-338 -18l-8 -20l-10 -72v-58l10 -20v-178l25 -12h334l49 14l147 24zM578 1808l-11 -22 l-139 -152l-41 -10h-141l137 205z" />
<glyph unicode="&#xea;" horiz-adv-x="825" d="M797 158l6 -90h-713l-33 673v498l-26 43l16 21v227h713l8 -25v-96l-6 -20l24 -107h-143l-352 -18l-17 -11l-2 -36l-22 -13l24 -262l127 8l74 -8l137 -29v-84l-14 -57l14 -29v-43l-338 -18l-8 -20l-10 -72v-58l10 -20v-178l25 -12h334l49 14l147 24zM694 1612h-215 l-70 145l-67 -145h-211l65 209h406z" />
<glyph unicode="&#xeb;" horiz-adv-x="825" d="M797 158l6 -90h-713l-33 673v498l-26 43l16 21v227h713l8 -25v-96l-6 -20l24 -107h-143l-352 -18l-17 -11l-2 -36l-22 -13l24 -262l127 8l74 -8l137 -29v-84l-14 -57l14 -29v-43l-338 -18l-8 -20l-10 -72v-58l10 -20v-178l25 -12h334l49 14l147 24zM328 1612h-203v194 h178l8 -30zM698 1604l-36 10l-144 -10v211h180v-211z" />
<glyph unicode="&#xec;" horiz-adv-x="456" d="M391 387l-16 -59v-250l-13 2v-76l9 -6h-260l-27 98l12 29v133l-12 356l8 17v186l-14 21l12 20l-6 86l6 135l6 8l-12 9l4 43l12 22l-16 21l12 39v227l15 76h170l65 6l29 -246v-668l6 -145l-4 -76zM393 1595h-142l-41 10l-63 64l-86 110l192 21z" />
<glyph unicode="&#xed;" horiz-adv-x="456" d="M391 387l-16 -59v-250l-13 2v-76l9 -6h-260l-27 98l12 29v133l-12 356l8 17v186l-14 21l12 20l-6 86l6 135l6 8l-12 9l4 43l12 22l-16 21l12 39v227l15 76h170l65 6l29 -246v-668l6 -145l-4 -76zM393 1779l-11 -22l-139 -152l-41 -10h-141l137 205z" />
<glyph unicode="&#xee;" horiz-adv-x="456" d="M391 387l-16 -59v-250l-13 2v-76l9 -6h-260l-27 98l12 29v133l-12 356l8 17v186l-14 21l12 20l-6 86l6 135l6 8l-12 9l4 43l12 22l-16 21l12 39v227l15 76h170l65 6l29 -246v-668l6 -145l-4 -76zM514 1583h-215l-70 145l-67 -145h-211l65 209h406z" />
<glyph unicode="&#xef;" horiz-adv-x="456" d="M391 387l-16 -59v-250l-13 2v-76l9 -6h-260l-27 98l12 29v133l-12 356l8 17v186l-14 21l12 20l-6 86l6 135l6 8l-12 9l4 43l12 22l-16 21l12 39v227l15 76h170l65 6l29 -246v-668l6 -145l-4 -76zM150 1583h-203v194h178l8 -30zM520 1575l-36 10l-144 -10v211h180v-211z " />
<glyph unicode="&#xf0;" horiz-adv-x="1001" d="M903 184l-16 -14l-64 -84l-45 -72l-164 9h-536l12 8v119l-12 104l14 -2l25 8l28 -16l70 4v403h-123l17 191h106v418l-10 45l-125 -11l-14 6l8 23v119l-8 108l694 -37l37 -59l106 -133v-1137zM539 651h-99v-420h131l117 9l-29 358l-12 84l19 6l-23 205v145l21 269h-238 l14 -129v-322l82 14z" />
<glyph unicode="&#xf1;" horiz-adv-x="952" d="M874 530l-6 -8v-315l-16 -6v-115l8 -59h-180l-371 938v-932h-200l-23 129l12 12l-35 367l11 41v872l-11 62h158l10 10l25 -10l47 10l41 -162l29 -29l63 -166l23 -12l-10 -12l34 -70l-6 -12l168 -422l17 -23v107l-35 356l10 13v194l-16 10l16 15v203h215v-498l16 -17 l-12 -30l16 -25v-358zM799 1843l-20 -221h-314l-123 139l-28 -131l-160 -12l27 219h305l129 -127l12 133h172z" />
<glyph unicode="&#xf2;" horiz-adv-x="942" d="M877 31h-787v952l-24 135v168l10 25v221l225 -10h547v-961zM639 240v663l-21 379l-14 25h-313l22 -346l-12 -19l12 -29l-16 -18l16 -6v-649h326zM637 1624h-142l-41 10l-63 64l-86 110l192 21z" />
<glyph unicode="&#xf3;" horiz-adv-x="942" d="M877 31h-787v952l-24 135v168l10 25v221l225 -10h547v-961zM639 240v663l-21 379l-14 25h-313l22 -346l-12 -19l12 -29l-16 -18l16 -6v-649h326zM637 1808l-11 -22l-139 -152l-41 -10h-141l137 205z" />
<glyph unicode="&#xf4;" horiz-adv-x="942" d="M877 31h-787v952l-24 135v168l10 25v221l225 -10h547v-961zM639 240v663l-21 379l-14 25h-313l22 -346l-12 -19l12 -29l-16 -18l16 -6v-649h326zM751 1612h-215l-70 145l-67 -145h-211l65 209h406z" />
<glyph unicode="&#xf5;" horiz-adv-x="942" d="M877 31h-787v952l-24 135v168l10 25v221l225 -10h547v-961zM639 240v663l-21 379l-14 25h-313l22 -346l-12 -19l12 -29l-16 -18l16 -6v-649h326zM792 1843l-20 -221h-314l-123 139l-28 -131l-160 -12l27 219h305l129 -127l12 133h172z" />
<glyph unicode="&#xf6;" horiz-adv-x="942" d="M877 31h-787v952l-24 135v168l10 25v221l225 -10h547v-961zM639 240v663l-21 379l-14 25h-313l22 -346l-12 -19l12 -29l-16 -18l16 -6v-649h326zM387 1612h-203v194h178l8 -30zM757 1604l-36 10l-144 -10v211h180v-211z" />
<glyph unicode="&#xf7;" horiz-adv-x="886" d="M815 641l-59 21h-117l-307 -25h-148l-26 -4l-45 -17l-23 13h-14v235h622l117 13v-236zM594 1032l-86 -67h-80l-49 28l-39 47l-25 54v45l31 49l45 43l49 26h49l50 -32l34 -51l21 -62v-80zM596 315l-86 -67h-80l-49 28l-39 48l-25 53v45l31 49l45 43l49 27h50l49 -33 l34 -51l21 -62v-80z" />
<glyph unicode="&#xf8;" d="M870 -10h-358l-41 22l-6 -12h-238l-94 8l-16 205l-17 334v981h680l19 -10l45 -9v-309l20 -20l-16 -72l10 -10v-496l19 -22zM350 610l240 680h-121l-156 8v-565l13 -86l14 -35zM659 471l-18 64v380l-244 -686h256v119z" />
<glyph unicode="&#xf9;" horiz-adv-x="905" d="M842 766l-13 -10v-242l7 -119l-11 -139l11 -8l-17 -8l17 -250l-29 22h-371l-6 6h-307l-55 -10v1211l12 14l-19 295l242 -19v-712l-18 -17l28 -18l-10 -29v-508h315l-6 142v1149h133l64 -7v-639l27 -43l-17 -14zM619 1624h-142l-41 10l-63 64l-86 110l192 21z" />
<glyph unicode="&#xfa;" horiz-adv-x="905" d="M842 766l-13 -10v-242l7 -119l-11 -139l11 -8l-17 -8l17 -250l-29 22h-371l-6 6h-307l-55 -10v1211l12 14l-19 295l242 -19v-712l-18 -17l28 -18l-10 -29v-508h315l-6 142v1149h133l64 -7v-639l27 -43l-17 -14zM619 1808l-11 -22l-139 -152l-41 -10h-141l137 205z" />
<glyph unicode="&#xfb;" horiz-adv-x="905" d="M842 766l-13 -10v-242l7 -119l-11 -139l11 -8l-17 -8l17 -250l-29 22h-371l-6 6h-307l-55 -10v1211l12 14l-19 295l242 -19v-712l-18 -17l28 -18l-10 -29v-508h315l-6 142v1149h133l64 -7v-639l27 -43l-17 -14zM733 1612h-215l-70 145l-67 -145h-211l65 209h406z" />
<glyph unicode="&#xfc;" horiz-adv-x="905" d="M842 766l-13 -10v-242l7 -119l-11 -139l11 -8l-17 -8l17 -250l-29 22h-371l-6 6h-307l-55 -10v1211l12 14l-19 295l242 -19v-712l-18 -17l28 -18l-10 -29v-508h315l-6 142v1149h133l64 -7v-639l27 -43l-17 -14zM369 1612h-203v194h178l8 -30zM739 1604l-36 10l-144 -10 v211h180v-211z" />
<glyph unicode="&#xfd;" horiz-adv-x="819" d="M793 1540l-97 -240l-114 -323l-47 -234v-712h-242v338l24 18l-24 19l10 36v402l-162 483l-88 219h240l127 -491l39 186l96 299h238zM576 1808l-11 -22l-139 -152l-41 -10h-141l137 205z" />
<glyph unicode="&#xfe;" horiz-adv-x="962" d="M883 1004l-13 -23v-508h-591v-57l24 -404l-20 -12l-43 12l-11 -2l-10 -10l-37 12h-53l-37 -10v1004l-12 22v481l119 -6l32 4v-465h492l139 -8v-14zM674 698v136h-406l19 -76v-60h387z" />
<glyph unicode="&#xff;" horiz-adv-x="819" d="M793 1540l-97 -240l-114 -323l-47 -234v-712h-242v338l24 18l-24 19l10 36v402l-162 483l-88 219h240l127 -491l39 186l96 299h238zM326 1612h-203v194h178l8 -30zM696 1604l-36 10l-144 -10v211h180v-211z" />
<glyph unicode="&#x152;" horiz-adv-x="1413" d="M1358 2l-80 4l-31 -6l-18 12l-80 -12h-885l-133 12l-6 6l-10 -10h-17l-30 402v628l12 66v43l-12 12l14 37v14l-14 9l12 14l-17 295h1237l43 -35v-217l-32 14h-393l-84 -4l-13 -12v-363l27 -14h205l133 14l4 -88l-8 -8l10 -145h-361l7 -27v-237l12 -3l-8 -20v-80l6 -88 h510v-213zM606 555v676l4 61h-329l8 -123l-8 -16l10 -4v-10l-12 -19l12 -41v-841l14 -13l180 13h133v104l-4 25l7 4v155z" />
<glyph unicode="&#x153;" horiz-adv-x="1413" d="M1358 2l-80 4l-31 -6l-18 12l-80 -12h-885l-133 12l-6 6l-10 -10h-17l-30 402v628l12 66v43l-12 12l14 37v14l-14 9l12 14l-17 295h1237l43 -35v-217l-32 14h-393l-84 -4l-13 -12v-363l27 -14h205l133 14l4 -88l-8 -8l10 -145h-361l7 -27v-237l12 -3l-8 -20v-80l6 -88 h510v-213zM606 555v676l4 61h-329l8 -123l-8 -16l10 -4v-10l-12 -19l12 -41v-841l14 -13l180 13h133v104l-4 25l7 4v155z" />
<glyph unicode="&#x178;" horiz-adv-x="849" d="M791 1530l-164 -379l-76 -242l-8 -75v-392l8 -36l-25 -19l6 -18v-328h-233v795l-12 82l-43 145l-193 485h238l135 -461l127 443h240zM340 1583h-203v194h178l8 -30zM710 1575l-36 10l-144 -10v211h180v-211z" />
<glyph unicode="&#x2c6;" horiz-adv-x="645" d="M604 1612h-215l-70 145l-67 -145h-211l65 209h406z" />
<glyph unicode="&#x2dc;" horiz-adv-x="727" d="M686 1843l-20 -221h-314l-123 139l-28 -131l-160 -12l27 219h305l129 -127l12 133h172z" />
<glyph unicode="&#x2000;" />
<glyph unicode="&#x2001;" horiz-adv-x="1843" />
<glyph unicode="&#x2002;" />
<glyph unicode="&#x2003;" horiz-adv-x="1843" />
<glyph unicode="&#x2004;" horiz-adv-x="614" />
<glyph unicode="&#x2005;" horiz-adv-x="460" />
<glyph unicode="&#x2006;" horiz-adv-x="307" />
<glyph unicode="&#x2007;" horiz-adv-x="307" />
<glyph unicode="&#x2008;" horiz-adv-x="230" />
<glyph unicode="&#x2009;" horiz-adv-x="368" />
<glyph unicode="&#x200a;" horiz-adv-x="102" />
<glyph unicode="&#x2010;" horiz-adv-x="909" d="M823 641l-59 21h-90l-170 -21h-318l-65 -25l-23 13h-14v235h635l104 13v-236z" />
<glyph unicode="&#x2011;" horiz-adv-x="909" d="M823 641l-59 21h-90l-170 -21h-318l-65 -25l-23 13h-14v235h635l104 13v-236z" />
<glyph unicode="&#x2012;" horiz-adv-x="909" d="M823 641l-59 21h-90l-170 -21h-318l-65 -25l-23 13h-14v235h635l104 13v-236z" />
<glyph unicode="&#x2013;" horiz-adv-x="1091" d="M1028 641l-59 21h-90l-170 -21h-523l-65 -25l-23 13h-14v235h840l104 13v-236z" />
<glyph unicode="&#x2014;" horiz-adv-x="1323" d="M1233 641l-59 21h-91l-170 -21h-727l-65 -25l-23 13h-14v235h1044l105 13v-236z" />
<glyph unicode="&#x2018;" horiz-adv-x="380" d="M315 1440l-53 -269l-168 -16l-51 219l-2 56l20 63l37 49l47 33h43l52 -27l45 -41l30 -47v-20z" />
<glyph unicode="&#x2019;" horiz-adv-x="368" d="M324 1393l-2 -25l-52 -219l-168 16l-53 269v20l31 47l43 41l49 27h47l47 -31l37 -51l21 -64v-30z" />
<glyph unicode="&#x201a;" horiz-adv-x="440" d="M365 205l-3 -25l-51 -219l-168 16l-53 269v20l31 47l43 41l49 27h47l47 -31l37 -51l21 -63v-31z" />
<glyph unicode="&#x201c;" horiz-adv-x="694" d="M623 1446l-54 -268l-168 -17l-51 219l-2 56l21 63l37 49l47 33h43l51 -27l45 -41l31 -47v-20zM336 1446l-53 -268l-168 -17l-52 219l-2 56l21 63l37 49l47 33h43l51 -27l45 -41l31 -47v-20z" />
<glyph unicode="&#x201d;" horiz-adv-x="675" d="M324 1393l-2 -25l-52 -219l-168 16l-53 269v20l31 47l43 41l49 27h47l47 -31l37 -51l21 -64v-30zM631 1393l-2 -25l-51 -219l-168 16l-54 269v20l31 47l43 41l49 27h47l47 -31l37 -51l21 -64v-30z" />
<glyph unicode="&#x201e;" horiz-adv-x="880" d="M365 205l-3 -25l-51 -219l-168 16l-53 269v20l31 47l43 41l49 27h47l47 -31l37 -51l21 -63v-31zM805 205l-3 -25l-51 -219l-168 16l-53 269v20l31 47l43 41l49 27h47l47 -31l37 -51l21 -63v-31z" />
<glyph unicode="&#x2022;" horiz-adv-x="829" d="M698 588l-178 -135h-160l-186 151l-51 115v94l156 188l106 56h96l103 -68l71 -100l43 -127v-174z" />
<glyph unicode="&#x2026;" horiz-adv-x="1554" d="M379 96l-86 -65h-78l-49 28l-41 45l-25 56v45l31 49l45 43l51 27h47l49 -33l35 -49l21 -62v-84zM922 106l-86 -65h-78l-49 28l-41 45l-25 56v45l31 49l45 43l51 27h47l49 -33l35 -49l21 -62v-84zM1424 116l-86 -65h-78l-49 28l-41 45l-25 56v45l31 49l45 43l51 27h47 l49 -33l35 -49l21 -62v-84z" />
<glyph unicode="&#x202f;" horiz-adv-x="368" />
<glyph unicode="&#x2039;" horiz-adv-x="499" d="M389 1038l-10 -180l-107 -88l-16 -39l127 -100l12 -166l-35 -21l-108 142l-23 -2l2 24l-139 140l262 299z" />
<glyph unicode="&#x203a;" horiz-adv-x="491" d="M96 457l10 174l136 98l-21 47l-131 92v162l45 8l111 -114l139 -185l-106 -114l-27 -45l-49 -37l-72 -84z" />
<glyph unicode="&#x2044;" horiz-adv-x="268" d="M641 1427l-39 -69l-76 -117l-28 -61l-686 -1143h-193l229 393l2 23l25 22l8 47l25 2l12 39l-6 10l18 11l5 41l18 -4l121 235l26 16l-2 19l15 16l2 13l18 10l2 16l10 8l5 21l20 18l43 80l-2 17l174 258l-2 24l21 4l4 31l18 6l25 66h200z" />
<glyph unicode="&#x205f;" horiz-adv-x="460" />
<glyph unicode="&#x2081;" horiz-adv-x="403" d="M319 539l-8 -27l6 -193v-186l-8 -133l-110 4l-27 -6v465l-14 6l8 16l-2 9l-21 20l17 2l-2 49l-43 -22l-15 2l-32 -25v236l73 71l4 25l29 8h80l55 -8v-174l8 -6v-23l-10 -6l6 -53l-8 10l8 -41z" />
<glyph unicode="&#x2082;" horiz-adv-x="544" d="M70 16l-9 142l11 20l139 113l115 121l-9 125v137l-14 14h-94l-10 -4l-2 -88l14 -147l-4 -39l2 -91l-72 -2l-78 -20l-20 463l16 10l41 74l156 -4l14 6l90 -6l21 6l59 -41l6 -14l19 -19v-135l-4 -21l16 -6l-10 -20v-164l6 -121l-129 -84l-12 -2l-2 -12l-66 -45h213v-80 l21 -66h-424z" />
<glyph unicode="&#x2083;" horiz-adv-x="575" d="M508 129v-39l-62 -84l-47 4h-235l-27 17l-57 51v237l139 -16l-4 -61l4 -15l2 -73l10 -11l19 -6l115 6v121l-11 94l-22 8h-92l-62 -16v168l45 -12l125 10l6 8l-14 174l-8 6h-125l-6 -12l6 -22l6 -119l-55 4l-95 -27v189l-12 41l62 84h297l24 -29l41 -31l14 -2l-6 -43 l15 -241l-60 -39l19 -29l41 -23v-108l10 -21l-6 -102z" />
<glyph unicode="&#x2084;" horiz-adv-x="555" d="M500 121h-78l-4 -90l10 -25l-57 -6h-84l6 115h-92l-146 -23v211l211 506h146l-9 -35v-297l23 -223h51l23 -8v-125zM281 246v172l-11 8l4 45l-86 -225h93z" />
<glyph unicode="&#x20ac;" horiz-adv-x="841" d="M436 1022h209l-37 -199h-246v-88h230l-35 -194h-195v-92l-10 -11l17 -16l-13 -35v-35l13 -6l-7 -82l68 -10h262l94 -8v-199l-84 6h-444l-86 -4l-12 88l-17 201v172l-4 18l-63 -4l-29 11v200h86v88h-94v193h115v145l-25 29l14 12v344h598l-36 -205h-359v-108l21 -217z" />
<glyph unicode="&#x2122;" horiz-adv-x="1400" d="M1270 526h-160v400l10 174l-63 -234l-31 -86l-22 6l-21 82l-92 258l10 -233v-231l-18 -146h-125l-25 84v930l33 63l100 4l119 -262l23 -88l104 346h141l33 -467zM662 1405h-222v-879h-168v879h-219v180h609v-180z" />
<glyph unicode="&#x25fc;" horiz-adv-x="1556" d="M0 1556h1556v-1556h-1556v1556z" />
</font>
</defs>
</svg>
